<svg width="40" height="182" viewBox="0 0 40 182" fill="none" xmlns="http://www.w3.org/2000/svg">
<path d="M23.1539 0.525781C23.1539 0.525781 18.4466 -0.238479 18.0028 2.27529C18.0028 2.27529 18.2247 5.24946 16.8844 8.4661C15.5411 11.6858 16.7851 19.0092 16.7851 19.0092C16.7851 19.0092 16.7471 25.7832 15.1323 28.4811C13.5175 31.179 11.158 32.8641 11.2485 34.9205C11.3391 36.9739 -0.224605 38.6037 3.01381 52.9466C3.01381 52.9466 3.43138 55.8901 1.54207 60.8869C-0.34725 65.8838 1.08069 82.9553 2.73932 93.2252C2.73932 93.2252 5.50759 107.08 6.69608 111.218C7.88456 115.355 9.05845 120.809 8.69636 126.696C8.33426 132.58 9.07889 139.231 11.8326 148.764C11.8326 148.764 11.8326 154.403 14.484 157.561C17.1355 160.719 21.2821 167.398 22.4297 169.851C23.5773 172.303 31.4441 181.219 35.8505 181.278C35.8505 181.278 36.8083 180.28 31.4996 175.286C26.1908 170.293 23.3057 159.842 23.2911 155.52C23.2765 151.198 22.1931 144.977 23.77 143.412C25.3469 141.849 28.1998 135.195 29.3591 130.689C30.5184 126.184 32.4603 124.373 32.4603 124.373C32.4603 124.373 37.8946 116.187 39.0889 102.086C40.2833 87.9859 39.2116 83.2653 38.7035 81.0892C38.1954 78.913 39.1065 74.0696 39.1065 74.0696C39.1065 74.0696 39.9767 64.7205 37.9793 60.5217C37.9793 60.5217 38.8612 44.2144 30.6177 36.8603C30.6177 36.8603 27.6421 32.815 26.9646 30.8537C26.2871 28.8924 24.9147 26.2865 24.9147 26.2865C24.9147 26.2865 23.2561 18.8373 24.9118 15.0068C26.5675 11.1763 24.6606 9.03085 25.9659 6.94372C27.2683 4.85965 28.6116 1.63994 27.4114 1.63994C27.4114 1.63994 24.0211 0.292513 23.1539 0.522711V0.525781Z" fill="#008E4A"/>
</svg>
