<svg width="109" height="96" viewBox="0 0 109 96" fill="none" xmlns="http://www.w3.org/2000/svg">
<g clip-path="url(#clip0_334_4416)">
<path d="M87.5636 26.1853C85.9972 31.5356 84.4477 37.1353 81.8824 42.1003C79.4873 46.7251 76.2238 50.8909 72.3019 54.3312C58.181 66.7095 26.0571 72.5076 6.46492 63.3939C5.49439 62.9405 4.35359 63.0425 3.47955 63.6603C2.74172 64.1817 1.99822 64.7088 1.26039 65.2303C0.318239 65.899 -0.152836 67.0496 0.0514858 68.1832C0.70418 71.8502 1.95849 76.1406 4.95521 79.921C20.6256 99.6844 61.785 101.118 85.3161 84.8349C95.4811 77.7956 104.125 66.8002 107.343 54.983C110.788 42.3326 109.097 27.5739 100.163 17.6383C99.874 17.3153 99.5732 16.9922 99.2667 16.6805C94.8908 12.1973 93.5684 6.62028 92.8192 0.680496C92.7511 0.14773 92.1779 -0.158327 91.6955 0.0910527C90.1233 0.89587 87.0358 2.15977 85.3104 2.86824C84.8223 3.06661 84.6748 3.68439 85.0153 4.0868C85.8666 5.08432 87.0245 6.76764 87.2174 7.04536C88.4434 8.78535 89.3628 10.7577 89.7374 12.8604C90.532 17.3153 88.8804 21.6851 87.6431 25.8962C87.6147 25.9926 87.5863 26.0946 87.558 26.1909L87.5636 26.1853Z" fill="#781B53"/>
</g>
<defs>
<clipPath id="clip0_334_4416">
<rect width="109" height="96" fill="white"/>
</clipPath>
</defs>
</svg>
