<svg width="64" height="123" viewBox="0 0 64 123" fill="none" xmlns="http://www.w3.org/2000/svg">
<path d="M63.4274 4.02597C62.6658 2.94367 61.651 2.12111 60.4777 1.52946C58.8948 0.729589 57.2295 0.158557 55.4428 0.0307428C54.3416 -0.0475949 53.2527 0.00187755 52.2173 0.43892C50.7743 1.04707 50.3338 2.20152 51.0069 3.6116C51.1119 3.82806 51.1325 4.00741 51.0234 4.22593C50.48 5.31441 49.9757 6.42351 49.4055 7.49962C47.2874 11.4928 44.8728 15.3107 42.4583 19.1266C40.4184 22.3549 38.572 25.674 37.127 29.2177C36.1081 31.7163 35.0748 34.2128 33.7018 36.5485C32.8146 38.0575 31.8183 39.4882 30.5401 40.6798C29.1074 42.0136 27.6315 43.3062 26.1021 44.5266C23.2183 46.8293 20.7852 49.5154 18.8935 52.6902C18.2781 53.723 17.7511 54.7991 17.3435 55.9268L17.0883 56.2071L15.2028 61.5774C15.2028 61.5774 15.0628 62.2701 14.8343 63.406C14.1695 65.3562 13.5046 67.3064 12.8377 69.2586C11.5964 72.8993 10.3511 76.5378 9.10986 80.1785C7.14201 85.9507 5.17005 91.7209 3.21661 97.4973C2.1771 100.575 1.17877 103.667 0.151618 106.749C-0.0336394 107.306 -0.0645157 107.858 0.145443 108.394C0.334818 108.879 0.559185 109.359 0.845306 109.79C1.76542 111.178 3.00253 112.262 4.29728 113.278C7.01851 115.416 9.99292 117.142 13.1053 118.632C14.6552 119.374 16.2011 120.129 17.8252 120.714C18.8812 121.095 19.966 121.326 21.0549 121.551C22.9692 121.945 24.8856 122.367 26.8184 122.635C29.447 123 32.0942 123.141 34.7454 122.825C35.8837 122.689 37.0035 122.46 38.041 121.945C38.6852 121.625 39.2575 121.219 39.5724 120.543C39.7721 120.114 39.9676 119.679 40.1261 119.234C40.8363 117.238 41.5382 115.241 42.2237 113.237C42.2751 113.086 42.2442 112.907 42.2237 112.732L42.3863 112.278C42.4336 112.307 42.4768 112.334 42.5242 112.363C42.5839 112.212 42.6395 112.093 42.6827 111.969C43.576 109.431 44.4344 106.881 45.371 104.36C46.0585 102.511 46.5093 100.573 47.4603 98.8208C47.6599 98.4518 47.7464 98.023 47.8884 97.623C48.7715 95.1204 49.6566 92.6197 50.5376 90.1171C51.7006 86.8145 52.8616 83.512 54.0205 80.2094C54.0802 80.0424 54.1234 79.8693 54.146 79.7971C54.0843 79.7435 54.0266 79.694 53.9731 79.6487L54.1172 79.2364C54.1646 79.3065 54.2119 79.3848 54.2695 79.4673C54.3436 79.2735 54.4033 79.1292 54.4548 78.9807C55.3605 76.41 56.2353 73.8249 57.1843 71.2707C57.703 69.8729 58.1455 68.4608 58.3596 66.9889C58.5058 65.9787 58.6334 64.9583 58.6437 63.9399C58.6581 62.4453 58.6787 60.9342 58.4769 59.4623C58.2155 57.5616 57.7627 55.6856 57.3469 53.8096C56.929 51.9192 56.4741 50.037 56.365 48.0951C56.2106 45.347 56.6367 42.6547 57.2028 39.9809C57.6227 38.0039 58.0756 36.0352 58.5037 34.0602C58.5325 33.9304 58.4831 33.784 58.4605 33.551C58.5078 33.4686 58.6519 33.314 58.6869 33.1387C58.8289 32.4481 58.973 31.7534 59.0533 31.0545C59.2509 29.362 59.4135 27.6654 59.5885 25.9708C59.8026 23.9011 59.9858 21.8272 60.239 19.7615C60.5107 17.5392 60.8112 15.319 61.1673 13.109C61.4143 11.5752 61.7766 10.058 62.0895 8.53451C62.1924 8.03768 62.3447 7.613 62.8984 7.39242C63.199 7.27285 63.4727 6.97394 63.6559 6.68945C64.2549 5.76176 64.0038 4.85676 63.4233 4.03421L63.4274 4.02597ZM47.6373 97.5983L47.6476 97.5715C47.6517 97.5859 47.6538 97.5983 47.6579 97.6128C47.6517 97.6086 47.6455 97.6024 47.6394 97.5983H47.6373Z" fill="#3FB549"/>
</svg>
