<svg width="111" height="111" viewBox="0 0 111 111" fill="none" xmlns="http://www.w3.org/2000/svg">
<path d="M65.9226 0.302117C64.9569 2.38426 63.9049 4.14201 63.3601 6.04309C63.1159 6.89179 63.5855 8.36287 64.2581 8.97393C65.4867 10.1018 67.2076 10.6676 68.5414 11.7049C72.9149 15.1072 72.355 20.9689 67.4743 23.5904C67.0347 23.828 66.5763 24.0317 66.118 24.2241C62.4959 25.748 60.9379 28.5908 61.4439 32.7526C62.4358 32.7526 63.4803 32.7865 64.5249 32.7488C72.2235 32.4584 79.9222 32.1038 87.6246 31.8737C91.7163 31.7492 92.1296 32.3263 91.5773 36.4265C91.4458 37.411 91.3632 38.403 91.2204 39.7873C93.0877 38.8858 94.6057 38.0334 96.21 37.3997C102.793 34.7894 107.362 37.0376 109.364 43.8121C111.284 50.3112 111.671 56.8707 109.676 63.3962C106.697 73.1242 99.6818 76.4209 90.2998 72.6225C88.733 71.9888 87.2339 71.1854 85.4003 70.3179C84.3333 73.3883 83.5856 76.5152 82.2066 79.3329C78.9566 85.9678 75.9771 92.848 71.8328 98.902C66.0503 107.355 57.6678 111.836 47.1211 110.871C41.9624 110.399 36.7209 109.931 31.7388 108.619C14.5004 104.081 5.5505 91.9201 3.13833 74.8706C1.49264 63.2642 0.955343 51.4956 0.0498372 39.7873C-0.228202 36.1926 0.594645 35.7211 4.10771 35.5816C11.0512 35.31 17.9834 34.8272 25.4754 34.4009C22.9279 25.2312 26.3471 19.792 35.9319 18.204C35.7628 17.8381 35.5938 17.4685 35.4284 17.1026C34.0984 16.2388 32.8246 15.2694 31.4269 14.5376C28.778 13.1495 26.9107 11.2371 26.55 8.14032C26.0127 3.56866 29.2477 -0.497545 34.9663 0.320977C34.2411 2.16171 33.3582 3.82139 32.9749 5.59045C32.7345 6.69187 32.896 8.21199 33.516 9.07955C34.1359 9.94333 35.5599 10.2262 36.6308 10.7581C39.3811 12.1198 40.8765 14.2359 40.9216 17.4119C40.9667 20.5389 39.4036 22.489 36.7623 23.7865C36.4918 23.9186 36.2175 24.0355 35.9432 24.1562C29.7925 26.8569 29.7098 27.0342 31.581 34.2425C34.29 34.0577 37.0967 33.8691 40.4857 33.639C38.2126 24.7899 42.1765 19.8561 50.9874 18.1135C50.8709 17.7514 50.7506 17.3855 50.6342 17.0234C49.1237 16.0841 47.6471 15.077 46.0954 14.2132C42.9468 12.463 41.5941 9.86789 41.921 6.25432C42.308 1.95048 44.9757 -0.195786 50.0443 0.437909C49.4769 2.13908 49.1763 3.88551 48.3385 5.32264C47.2864 7.1332 47.4968 8.27234 49.2966 9.22288C50.3599 9.78491 51.4119 10.3658 52.4377 10.9882C55.0565 12.58 56.4354 14.9412 56.24 18.0079C56.0484 21.0443 54.1322 22.8775 51.4796 24.0393C51.3894 24.0808 51.2955 24.126 51.2015 24.1487C45.8662 25.3934 44.9456 25.533 46.6252 33.5145C49.4394 33.39 52.2611 33.2656 55.2218 33.1335C55.2218 31.7341 55.2444 30.5422 55.2218 29.354C55.1091 23.9261 56.4918 21.8138 61.5528 19.7241C62.1991 19.4563 62.9055 19.2941 63.4916 18.932C64.2055 18.4944 64.8254 17.8985 65.4867 17.3704C64.9043 16.7593 64.4272 15.9483 63.7208 15.5674C60.7901 13.9756 57.7392 12.5573 57.3184 8.65331C56.721 3.11225 59.5502 -1.16896 65.9451 0.287029L65.9226 0.302117ZM105.385 52.9667C105.149 51.1901 105.047 49.3795 104.641 47.6406C103.845 44.227 102.413 43.3707 98.9679 44.1364C94.9213 45.0342 91.5923 47.354 90.1045 51.092C88.6992 54.6188 88.4212 58.5983 87.6472 62.3778C90.3036 63.8941 92.8848 65.5651 95.6352 66.8778C98.3292 68.164 100.456 66.9532 102.06 64.6561C104.506 61.1481 105.299 57.1875 105.385 52.9667Z" fill="#781B53"/>
</svg>
