<svg width="491" height="231" viewBox="0 0 491 231" fill="none" xmlns="http://www.w3.org/2000/svg">
<path fill-rule="evenodd" clip-rule="evenodd" d="M485.601 92.5753C481.846 88.919 477.039 87.0725 472.348 84.9606C469.49 83.692 465.587 83.9126 464.059 79.8886C466.38 78.4649 468.55 77.1831 470.657 75.8146C473.912 73.6949 476.575 70.9501 478.851 67.8086C488.796 54.0266 482.638 39.0914 465.966 36.118C457.717 34.6603 449.958 37.6415 441.232 38.7867C440.252 33.1946 442.794 29.9192 443.521 26.2366C446.284 12.4572 439.078 3.72881 424.903 4.02562C418.307 4.15696 412.524 6.7337 406.919 10.0748C383.499 23.9619 362.271 40.7357 341.271 57.7932C330.509 36.9165 313.182 20.4133 288.168 9.46279C256.096 -4.57403 222.581 -2.11811 190.741 11.065C155.711 25.5773 136.416 52.5714 128.894 87.5952C127.556 87.5558 126.207 87.4822 124.851 87.3745C101.026 85.5096 77.1632 83.9415 53.3219 82.2263C46.0368 81.7141 38.7886 81.9085 31.6351 83.3374C24.6529 84.74 18.3239 87.3982 16.4407 95.152C14.597 102.743 18.5978 108.164 23.9102 112.998C26.9338 115.732 31.7747 116.622 32.9231 121.721C30.7765 124.733 27.1287 125.014 24.0893 126.199C17.647 128.697 11.555 131.749 6.45591 136.422C-3.43142 145.46 -1.83533 155.949 10.375 161.769C13.8095 163.406 17.5706 164.383 21.2816 165.365C30.1233 167.737 30.1286 167.676 28.1453 176.602C26.1779 185.406 28.4193 190.513 36.563 194.161C40.0028 195.711 43.8718 196.717 47.6224 197.124C53.6327 197.791 56.2507 200.105 56.9039 206.669C58.1207 219.109 64.0784 223.254 76.8498 222.274C84.5879 221.673 91.8256 219.033 99.0554 216.312C118.611 209.009 138.231 201.773 157.795 194.358C157.803 194.358 157.808 194.353 157.816 194.35C165.438 201.923 174.367 208.77 184.552 214.796C225.694 239.158 271.636 236.529 316.16 203.651C335.861 191.154 348.577 171.546 353.176 146.95C376.859 149.676 400.29 154.073 423.767 158.302C438.061 160.894 452.384 163.258 466.772 165.37C472.056 166.153 477.136 164.963 479.965 159.647C482.944 154.039 481.358 148.812 477.666 144.228C475.556 141.575 472.727 139.521 470.412 137.021C466.29 132.521 460.069 130.11 456.553 124.615C461.16 121.484 465.621 121.923 469.714 120.959C474.737 119.803 479.63 118.322 483.881 115.264C492.702 108.91 493.382 100.127 485.607 92.57L485.601 92.5753Z" fill="#FCAF17"/>
</svg>
