<svg width="82" height="77" viewBox="0 0 82 77" fill="none" xmlns="http://www.w3.org/2000/svg">
<path d="M20.5615 7.01613C22.521 1.95294 28.2249 0.259661 32.431 2.8807C34.0994 0.991889 36.1879 -0.0482068 38.7424 0.00171788C41.2719 0.0516425 43.3063 1.14999 44.908 3.09289C48.1157 1.43705 51.1444 1.63675 54.0442 3.77935C52.4924 8.32249 52.4217 12.7699 54.4936 17.155C56.5447 21.4901 59.8397 24.4606 64.3038 26.1872C63.7962 30.3767 64.57 34.2667 66.7626 37.8363C68.9426 41.3851 72.0462 43.8231 76.0111 45.2626C75.6242 48.0001 74.1847 49.9721 71.7966 51.3534C72.6329 53.7622 72.4748 56.1045 71.1642 58.2804C69.8662 60.4397 67.8984 61.6795 65.373 62.0872C65.3106 64.6417 64.3828 66.7842 62.3983 68.3902C60.4305 69.9836 58.163 70.4496 55.6668 69.9919C54.7307 72.3758 53.1207 74.0649 50.7035 74.8928C48.3071 75.7124 46.0189 75.3671 43.8305 74.094C42.1372 76.0078 40.0529 77.0521 37.4943 76.998C34.9647 76.9439 32.9261 75.8497 31.3452 73.9193C26.9934 76.3739 21.3936 74.5683 19.5963 69.4677C14.5331 70.2915 10.0024 66.4473 10.1189 61.2593C4.9933 60.2649 2.22248 55.1601 4.06137 50.3091C1.92709 48.9986 0.512562 47.1347 0.109004 44.6094C-0.290393 42.1132 0.416869 39.9081 2.08102 37.9486C0.512558 35.9683 -0.173906 33.7341 0.312859 31.2254C0.795464 28.7417 2.21832 26.9194 4.44828 25.6505C3.61621 23.2416 3.76599 20.9035 5.07651 18.7235C6.37455 16.5642 8.33825 15.3161 10.8719 14.9125C10.9302 12.3622 11.8538 10.2196 13.8424 8.60956C15.8103 7.02029 18.0736 6.53769 20.5739 7.00781L20.5615 7.01613ZM17.9695 28.4213C19.2343 29.1743 20.5199 29.5696 21.6723 29.5654C23.0785 29.5571 24.2351 28.9955 25.0339 27.8555C26.4234 25.8752 26.5399 23.7284 25.6663 21.5109C25.5248 21.1531 25.2918 20.8203 25.0464 20.5166C24.4057 19.7344 23.5403 19.2934 22.546 19.2976C21.9053 19.2976 21.2479 19.4765 20.6322 19.6762C19.2759 20.1172 18.0777 20.8245 17.0085 21.8021C16.3678 22.3888 15.9517 23.0503 15.6647 23.8407C15.3568 24.6853 15.3568 25.4758 15.8103 26.2912C16.3262 27.219 17.0667 27.8929 17.9654 28.4213H17.9695ZM30.7752 65.6152C31.8236 66.1643 32.8887 66.5929 34.0619 66.6969C35.6637 66.8425 37.0033 66.2975 37.9269 64.9745C39.3082 62.9941 39.4371 60.8307 38.5219 58.634C37.852 57.024 36.4458 56.246 34.7193 56.5414C32.4227 56.9324 30.4798 58.0266 29.0861 59.9113C28.0002 61.3799 28.0876 63.0607 29.3524 64.3837C29.785 64.8372 30.3009 65.2075 30.7752 65.6152ZM36.0922 37.0916C35.88 37.5659 35.672 37.9777 35.5139 38.4021C34.9939 39.7792 34.6693 41.1979 34.8649 42.6831C35.1561 44.884 36.6206 46.0905 38.8381 45.9324C40.3233 45.8284 41.692 45.3416 42.911 44.4762C44.6459 43.2365 45.2575 41.2644 44.5045 39.2758C43.868 37.5991 42.7197 36.3469 41.1138 35.5481C39.6036 34.7992 38.0933 34.9864 36.9867 36.0431C36.6455 36.3718 36.3668 36.7671 36.0964 37.0916H36.0922ZM59.7232 44.755C59.4694 44.626 59.224 44.4846 58.966 44.3722C57.6472 43.7939 56.3907 44.0685 55.3964 45.1211C54.8888 45.6578 54.5768 46.2985 54.3272 46.9766C53.8695 48.2164 53.5949 49.4812 53.803 50.8167C54.0359 52.3227 55.1634 53.5875 57.0439 53.4627C58.733 53.3504 60.289 52.8719 61.4706 51.5572C62.5107 50.4006 62.6771 49.0277 62.1446 47.659C61.6786 46.4608 60.8839 45.429 59.7232 44.755ZM14.2834 42.6207C13.572 43.9645 13.0853 45.533 13.2766 47.2429C13.4971 49.1733 14.7869 50.2425 16.7298 50.1011C18.0195 50.0096 19.2052 49.5894 20.2578 48.8322C21.7389 47.7671 22.2589 46.0822 21.6307 44.3722C21.1315 43.0076 20.2245 41.9634 18.9639 41.2561C17.1333 40.2243 15.4567 40.6861 14.2793 42.6207H14.2834ZM44.6709 20.1754C45.632 18.3615 45.711 16.8138 45.1785 15.2412C44.596 13.5271 43.194 12.7242 41.43 13.1028C39.7201 13.4731 38.2597 14.3176 37.1032 15.6365C35.8592 17.0593 35.9091 18.7401 37.2446 20.0257C38.397 21.1323 39.795 21.7772 41.4009 21.8604C42.9693 21.9436 44.0885 21.1947 44.6668 20.1796L44.6709 20.1754Z" fill="#008E4A"/>
<path d="M73.5065 38.0898C73.2943 37.9234 72.949 37.6862 72.6495 37.4033C71.3306 36.1719 71.2599 34.4536 72.4789 33.0849C73.5523 31.8825 74.9002 31.092 76.4562 30.6968C78.2868 30.235 79.7305 31.0296 80.2838 32.8269C80.8038 34.516 80.6582 36.1511 79.6181 37.6322C78.8526 38.7222 77.7792 39.1965 76.4562 39.1091C75.4286 39.0425 74.5175 38.6348 73.5023 38.0815L73.5065 38.0898Z" fill="#008E4A"/>
<path d="M64.3208 10.2947C65.0738 10.7856 65.7478 11.5386 66.1472 12.5163C66.7837 14.0806 66.3261 15.5783 64.9199 16.5103C64.0711 17.0761 63.1267 17.4048 62.1074 17.4713C60.4932 17.5795 59.4198 16.6975 59.2409 15.0957C59.0745 13.6354 59.4531 12.2667 60.1978 11.0352C61.0673 9.59155 62.4029 9.27535 63.9131 10.045C64.0088 10.095 64.1003 10.1574 64.325 10.2905L64.3208 10.2947Z" fill="#008E4A"/>
<path d="M76.2901 21.9477C75.1127 21.02 74.1974 19.5805 73.9894 17.7541C73.8646 16.6433 74.368 15.7737 75.3748 15.3036C77.0223 14.5339 78.674 14.6005 80.1343 15.7113C81.0288 16.3895 81.5405 17.3505 81.2784 18.5695C81.0288 19.7594 80.6793 20.8868 79.7807 21.7689C78.828 22.7049 77.7088 22.8297 76.286 21.9477H76.2901Z" fill="#008E4A"/>
</svg>
