<svg width="127" height="99" viewBox="0 0 127 99" fill="none" xmlns="http://www.w3.org/2000/svg">
    <g clip-path="url(#clip0_1826_5428)">
    <path d="M89.1476 37.7123C89.1476 41.4072 89.1476 45.1043 89.1476 48.7992C89.1476 50.01 89.1433 50.01 87.9614 50.0143C87.3629 50.0143 86.7623 49.9841 86.1659 50.0208C85.5954 50.0574 85.4512 49.8096 85.4512 49.2775C85.4641 43.7103 85.4641 38.1453 85.4512 32.5803C85.4512 32.0482 85.6212 31.8134 86.1767 31.8241C87.4792 31.8457 88.7838 31.8586 90.0841 31.8198C90.7666 31.8004 90.8635 32.2744 91.0422 32.7333C92.3511 36.1438 93.6644 39.5544 94.9776 42.9627C95.0508 43.1545 95.1391 43.3441 95.3544 43.5401C95.3673 43.2579 95.3931 42.9757 95.3931 42.6934C95.3953 39.4531 95.3931 36.2106 95.3953 32.9703C95.3953 31.8349 95.4017 31.8349 96.5686 31.8284C97.0616 31.8263 97.5611 31.8758 98.0476 31.8177C98.9217 31.7142 99.1004 32.1193 99.0961 32.9121C99.0702 38.266 99.0659 43.622 99.1004 48.9759C99.1047 49.8053 98.8722 50.0876 98.0368 50.0315C96.9841 49.9604 95.9227 49.9777 94.87 50.0294C94.2047 50.0617 93.8904 49.8441 93.6558 49.1956C92.3274 45.5287 90.9431 41.8833 89.5761 38.2315C89.505 38.0419 89.4168 37.8588 89.3371 37.6714C89.2725 37.6864 89.2079 37.6994 89.1433 37.7144" fill="#45AC36"/>
    <path d="M55.1029 41.1089C57.3139 41.7488 57.7939 43.2613 57.7832 45.1615C57.7724 46.7386 57.9296 48.3156 58.0178 50.0112C57.0081 50.0112 55.9231 50.0478 54.8424 49.9832C54.5948 49.9681 54.2051 49.6385 54.1621 49.4036C54.0178 48.6151 53.992 47.805 53.9425 47.0014C53.8822 46.0578 53.9468 45.0926 53.7724 44.1704C53.542 42.9683 51.7724 42.1323 50.6636 42.6472C50.485 42.7313 50.3902 43.16 50.3881 43.4293C50.3644 45.3317 50.3493 47.2341 50.3881 49.1343C50.4031 49.8173 50.2072 50.078 49.5054 50.0241C48.5646 49.9509 47.2858 50.3128 46.7713 49.8281C46.2782 49.3649 46.5387 48.0593 46.5366 47.1242C46.5215 42.3715 46.5517 37.6165 46.5108 32.8638C46.5021 32.0106 46.7669 31.7866 47.5829 31.8103C49.3762 31.8663 51.1717 31.8253 52.9672 31.8275C56.2998 31.8318 57.9554 33.564 57.809 36.897C57.7121 39.1117 57.1739 39.9865 55.1029 41.1089ZM50.3773 37.1555C50.3773 37.7868 50.3622 38.418 50.3859 39.0493C50.3924 39.2346 50.457 39.4996 50.5883 39.5857C51.3138 40.0662 53.2191 39.5039 53.499 38.6421C53.7293 37.9376 53.8305 37.1318 53.7552 36.395C53.6152 35.0333 52.8445 34.6154 51.0016 34.7877C49.7637 34.9019 50.6055 35.8779 50.3902 36.4208C50.3063 36.6341 50.3773 36.9077 50.3773 37.1533" fill="#45AC36"/>
    <path d="M39.6554 37.5305C39.5434 36.8799 39.4746 36.3585 39.3605 35.8479C39.1538 34.9301 38.5058 34.5186 37.6209 34.4152C36.7706 34.3161 36.0192 34.706 35.6834 35.5592C35.4293 36.2055 35.1925 36.9122 35.1904 37.593C35.1839 40.159 35.1817 42.7336 35.3647 45.2909C35.5262 47.551 36.9169 47.9129 39.1366 47.3528C39.3152 47.3075 39.5047 46.9585 39.5305 46.7323C39.5887 46.2109 39.5521 45.6766 39.5521 45.1487C39.5521 44.1146 39.0526 43.5336 38.0537 43.4058C37.9826 43.3972 37.8922 43.4209 37.847 43.3864C37.0031 42.7336 37.6145 41.833 37.4896 41.0552C37.4659 40.898 37.8857 40.5059 38.1075 40.4994C39.6554 40.4498 41.2076 40.4865 42.7555 40.4649C43.2873 40.4563 43.4035 40.6976 43.4014 41.1694C43.3885 43.813 43.4078 46.4565 43.3734 49.0979C43.3712 49.3456 43.0935 49.7636 42.8825 49.8045C40.3917 50.3022 37.8814 50.6685 35.3518 50.0976C32.8653 49.5374 31.5563 48.1068 31.3669 45.3189C31.186 42.6603 31.158 39.9737 31.3173 37.3129C31.5951 32.6851 34.6651 30.9551 39.2334 31.7479C41.9956 32.2284 43.4143 34.0812 43.4251 36.7571C43.4251 37.2655 43.3519 37.5564 42.7555 37.537C41.7394 37.5068 40.7211 37.5284 39.6576 37.5284" fill="#45AC36"/>
    <path d="M72.9669 41.0081C72.9669 38.2612 72.9906 35.5121 72.9518 32.7651C72.941 32.0219 73.1757 31.8021 73.9098 31.8129C76.6203 31.8495 79.3329 31.843 82.0434 31.8172C82.7022 31.8107 82.9627 31.9745 82.9648 32.6984C82.9713 34.7817 83.0057 34.7817 80.9583 34.7817C79.8668 34.7817 78.7732 34.8076 77.6838 34.7731C77.1068 34.7537 76.8507 34.9196 76.8743 35.5358C76.9109 36.4859 76.9023 37.4382 76.8765 38.3883C76.8614 38.9463 77.1025 39.1294 77.6322 39.123C78.9002 39.1036 80.1682 39.1553 81.4341 39.1036C82.2264 39.0713 82.5515 39.2716 82.5278 40.1485C82.4783 41.9755 82.5278 41.9755 80.6742 41.9755C79.6537 41.9755 78.6311 41.9992 77.6106 41.9669C77.0595 41.9496 76.8636 42.1479 76.8743 42.6929C76.898 43.9253 76.9023 45.1598 76.8722 46.39C76.8571 47.0127 77.137 47.1699 77.701 47.1613C79.2145 47.1376 80.7301 47.1829 82.2436 47.1419C82.9261 47.1247 83.1543 47.3401 83.1564 48.0403C83.165 50.0117 83.1952 50.0117 81.2382 50.0117C78.7732 50.0117 76.3081 49.9901 73.8431 50.0246C73.1606 50.0354 72.9389 49.8436 72.9475 49.1434C72.9841 46.4309 72.9626 43.7185 72.9626 41.006" fill="#45AC36"/>
    <path d="M64.3367 47.1549C66.2183 47.1549 67.9385 47.1894 69.6586 47.1398C70.4336 47.1183 70.7006 47.3359 70.6855 48.146C70.6511 50.0139 70.6941 50.0139 68.8728 50.0139C66.3712 50.0139 63.8695 49.9923 61.3701 50.029C60.6876 50.0376 60.4723 49.8437 60.4766 49.1456C60.5025 43.6841 60.5046 38.2225 60.4766 32.7609C60.4723 32.009 60.7156 31.8065 61.4411 31.8151C64.1171 31.8517 66.7953 31.8582 69.4713 31.8129C70.2786 31.8 70.4853 32.0715 70.4746 32.8471C70.4466 34.784 70.4832 34.7839 68.5197 34.7839C67.3916 34.7839 66.2635 34.8055 65.1376 34.7753C64.5843 34.7603 64.2937 34.8701 64.3238 35.5165C64.3712 36.4644 64.3712 37.421 64.3238 38.369C64.2915 39.0132 64.5886 39.1338 65.1397 39.1252C66.4788 39.1037 67.8179 39.1424 69.1548 39.1101C69.7985 39.095 70.0203 39.3299 70.0074 39.9698C69.9557 42.4646 70.2614 41.9174 68.1193 41.9734C67.0644 41.9993 66.0052 41.9928 64.9481 41.9734C64.5003 41.9648 64.3216 42.1156 64.3281 42.5788C64.3475 44.0546 64.3346 45.5326 64.3346 47.1592" fill="#45AC36"/>
    <path d="M80.1963 58.9744C80.1963 61.7902 80.1704 64.6061 80.2135 67.4199C80.2264 68.1804 80.0606 68.4626 79.2361 68.4411C77.4104 68.3958 77.4083 68.4411 77.4083 66.5969C77.4083 62.8632 77.432 59.1273 77.3889 55.3936C77.3803 54.5943 77.6063 54.3336 78.3921 54.4047C79.3975 54.4952 80.6397 54.157 81.3566 54.6352C82.0305 55.0834 82.1661 56.3524 82.5235 57.2659C83.3007 59.2544 84.0693 61.2473 85.0337 63.2187V59.513C85.0337 58.1039 85.0682 56.6928 85.0208 55.2859C84.9972 54.5771 85.249 54.4004 85.925 54.4004C87.8777 54.4004 87.8777 54.3724 87.8777 56.3437C87.8777 60.0085 87.8626 63.6711 87.8906 67.3358C87.8971 68.0921 87.783 68.5294 86.8723 68.4325C85.9035 68.3269 84.7022 68.6673 84.0068 68.2041C83.361 67.7732 83.2339 66.5473 82.9003 65.6618C82.0563 63.4298 81.2253 61.1956 80.3879 58.9593L80.1919 58.97L80.1963 58.9744Z" fill="#45AC36"/>
    <path d="M49.7726 61.5513C51.2753 61.9972 51.7145 63.0292 51.7274 64.4038C51.7404 65.7008 51.8674 66.9956 51.9513 68.4132C51.1419 68.4132 50.2958 68.4822 49.4755 68.3701C49.2258 68.3357 48.8964 67.8164 48.8598 67.4911C48.7371 66.3751 48.7285 65.2483 48.6747 64.1258C48.6381 63.3869 48.1989 62.984 47.5358 62.7815C46.4077 62.4367 46.102 62.6651 46.0998 63.8458C46.0977 65.1126 46.0762 66.3794 46.1063 67.6462C46.1214 68.2452 45.8953 68.4154 45.3097 68.4305C42.9782 68.4973 42.9803 68.5167 42.9803 66.2308C42.9803 62.6393 43.004 59.0499 42.9631 55.4606C42.9545 54.6311 43.1892 54.3639 44.0266 54.3984C45.5724 54.463 47.1225 54.4006 48.6704 54.4221C50.2054 54.4415 51.2581 55.2947 51.6349 56.7748C52.1795 58.9163 51.6263 60.4051 49.7726 61.5491M46.102 58.4725C46.102 58.8603 46.1214 59.2481 46.0977 59.6338C46.0632 60.1508 46.2226 60.3857 46.8017 60.3986C48.2118 60.4331 48.905 59.5368 48.651 57.9145C48.5046 56.9752 47.8394 56.5464 46.6811 56.6455C45.708 56.7274 46.2376 57.4879 46.1063 57.9447C46.0611 58.1084 46.0998 58.2959 46.0998 58.4704" fill="#45AC36"/>
    <path d="M90.3107 61.4171C90.3107 59.3747 90.3366 57.3323 90.2957 55.292C90.2806 54.6004 90.4916 54.3785 91.1848 54.4043C92.5196 54.4539 93.8587 54.4151 95.1956 54.4194C97.8458 54.4259 99.3226 55.5914 99.5788 58.2436C99.7769 60.2947 99.7747 62.3888 99.6133 64.4442C99.4066 67.064 97.7403 68.4148 95.0901 68.4192C93.751 68.4213 92.4141 68.3933 91.0772 68.4299C90.4765 68.4472 90.2892 68.2468 90.2978 67.65C90.328 65.5731 90.3107 63.494 90.3107 61.4171ZM93.3097 61.3633C93.3097 62.7378 93.2946 64.1124 93.3247 65.4869C93.3291 65.7153 93.4647 66.0751 93.6348 66.144C94.7715 66.6137 96.3043 65.8877 96.4077 64.6704C96.5799 62.6495 96.6509 60.5963 96.5088 58.5754C96.399 57.0328 95.7381 56.6773 94.1579 56.6342C93.5422 56.617 93.2688 56.7656 93.2946 57.4508C93.3463 58.7521 93.3097 60.0577 93.3097 61.3611" fill="#45AC36"/>
    <path d="M53.5635 61.3036C53.6926 59.9765 53.7163 58.6299 53.9747 57.3308C54.3708 55.3444 55.7809 54.3167 57.7982 54.1982C61.7056 53.9698 63.2557 55.5641 63.3203 59.1125C63.359 61.2455 63.3461 63.4042 63.0426 65.507C62.7498 67.53 61.3935 68.4888 59.3676 68.6267C59.0511 68.6482 58.7368 68.6934 58.4203 68.6848C55.3719 68.618 53.8498 67.1164 53.7379 64.0506C53.7034 63.1392 53.7314 62.2236 53.7314 61.3101C53.6754 61.3079 53.6195 61.3058 53.5635 61.3036ZM60.3773 61.5557C60.2804 60.375 60.2331 59.1815 60.0759 58.003C59.9252 56.887 59.331 56.3397 58.4914 56.3677C57.7034 56.3936 57.0253 56.9516 56.9822 57.9814C56.8897 60.2889 56.8875 62.6028 56.9822 64.908C57.0231 65.9336 57.7077 66.4657 58.5194 66.4743C59.3418 66.483 59.9058 65.9874 60.0673 64.921C60.2352 63.8157 60.2783 62.6911 60.3795 61.5557" fill="#45AC36"/>
    <path d="M37.645 63.41C37.4534 63.3712 37.419 63.3583 37.3824 63.3562C36.0174 63.2743 35.673 62.8089 36.0347 61.4516C36.0863 61.262 36.3963 61.0207 36.5944 61.0142C37.7548 60.9733 38.9195 60.969 40.0778 61.0186C40.2737 61.0272 40.6138 61.3611 40.6181 61.5486C40.6569 63.591 40.659 65.6334 40.6203 67.6759C40.616 67.8956 40.3081 68.2899 40.123 68.3007C38.2736 68.4105 36.4007 68.6583 34.5729 68.4709C32.5363 68.2619 31.4813 66.9563 31.35 64.7716C31.223 62.6387 31.2252 60.4864 31.3371 58.3513C31.4254 56.701 32.082 55.2101 33.7828 54.5961C35.6385 53.926 37.5201 53.8786 39.2274 55.0615C40.3339 55.8284 40.6935 57.0048 40.6612 58.2975C40.6569 58.4827 40.3662 58.7995 40.1854 58.8167C39.5223 58.8813 38.8463 58.8792 38.1832 58.8188C37.9959 58.8016 37.7613 58.5323 37.6752 58.3255C37.5438 58.0088 37.6299 57.5499 37.4276 57.3236C37.0831 56.9358 36.6138 56.4834 36.1531 56.4274C35.7376 56.3778 35.1541 56.729 34.8484 57.0802C34.5535 57.4184 34.3877 57.9851 34.3877 58.4504C34.3877 60.6609 34.3662 62.88 34.5406 65.0797C34.6439 66.3789 36.1574 66.98 37.307 66.3207C37.4706 66.2259 37.6149 65.9523 37.6256 65.7562C37.6622 64.9892 37.6407 64.2201 37.6407 63.4079" fill="#45AC36"/>
    <path d="M65.5653 60.0515C65.5653 58.4292 65.589 56.809 65.5546 55.1867C65.5416 54.5878 65.7376 54.4175 66.3339 54.4025C68.5664 54.3508 68.5664 54.3292 68.5664 56.5785C68.5664 59.0475 68.56 61.5144 68.5729 63.9812C68.5729 64.3626 68.6116 64.7568 68.7107 65.1253C68.9539 66.0409 69.5309 66.489 70.3576 66.4718C71.18 66.4546 71.7699 65.9677 71.94 65.0585C72.0562 64.4401 72.1122 63.8003 72.1165 63.1712C72.1359 60.5621 72.1509 57.953 72.1079 55.3461C72.095 54.605 72.3081 54.3917 73.0508 54.4003C75.1219 54.4219 75.1241 54.3874 75.1241 56.4212C75.1241 58.9247 75.053 61.4303 75.1434 63.9295C75.2489 66.8402 73.5008 68.846 70.0648 68.6715C67.4642 68.5401 65.9055 67.4327 65.6235 65.442C65.4964 64.5414 65.5782 63.6128 65.5718 62.6972C65.5653 61.816 65.5718 60.9348 65.5718 60.0536" fill="#45AC36"/>
    <path d="M108.687 62.7856C117.133 64.438 123.682 70.9467 125.29 79.11C125.424 79.7908 125.49 80.4673 124.905 80.9714C124.326 81.4691 123.656 81.3743 123.017 81.0835C119.594 79.5301 116.153 79.8166 112.73 81.0318C110.524 81.816 108.3 82.3761 105.929 82.3094C101.068 82.1736 96.1488 77.8259 95.6924 73.0473C96.039 73.6031 96.3038 74.0384 96.5815 74.4649C99.8991 79.5301 104.717 81.0899 110.323 78.8364C112.592 77.925 114.862 77.0783 117.335 77.0417C118.521 77.0244 119.71 77.1623 120.898 77.2334C121.135 77.2485 121.37 77.2744 121.848 77.3175C120.844 73.9199 119.167 71.104 116.872 68.6263C114.595 66.1681 111.85 64.3562 108.687 62.7812" fill="#45AC36"/>
    <path d="M30.4805 29.1048C29.8261 27.6936 29.2749 26.1208 28.4224 24.7355C26.0865 20.9415 22.5171 19.554 18.2092 20.0237C15.5762 20.3102 12.9562 20.6485 10.3362 20.0969C9.24249 19.8664 8.19189 19.4398 7.12192 19.0972C6.83559 19.0068 6.55571 18.8926 6.08854 18.7245C6.44592 25.7589 9.6946 31.1063 14.6117 35.6436C12.5601 34.7258 10.8012 33.4245 9.25972 31.8409C5.00565 27.476 2.98841 22.2428 3.23384 16.1413C3.26182 15.439 3.3544 14.7797 4.05408 14.4371C4.78175 14.0795 5.38455 14.366 5.98951 14.8314C9.00998 17.1561 12.4761 17.7442 16.1726 17.3629C19.6581 17.0031 23.0295 17.2573 25.9531 19.4269C29.2276 21.8571 30.5171 25.2439 30.4827 29.1069" fill="#45AC36"/>
    <path d="M58.6183 3.5206C52.1618 5.21617 47.9616 9.31181 44.7021 14.6721C44.7344 14.4653 44.7409 14.252 44.8012 14.056C47.1048 6.64242 51.953 1.93275 59.5699 0.187635C60.1145 0.0626758 60.685 -0.00411272 61.2426 0.000196222C62.487 0.0088141 63.2448 1.07312 62.6721 2.1719C60.8659 5.62767 61.1436 9.12437 62.0758 12.7503C63.1221 16.8223 62.7927 20.752 59.938 24.1152C58.1404 26.233 55.8196 27.4567 52.9885 27.67C53.1435 27.5752 53.2899 27.4654 53.4514 27.3835C58.84 24.6279 60.9843 19.9269 59.2555 14.084C58.2394 10.6476 57.6409 7.25429 58.6161 3.51844" fill="#45AC36"/>
    <path d="M25.2058 69.5381C21.5071 73.819 19.0249 78.5567 19.1584 84.544C19.4834 84.4298 19.6772 84.391 19.8451 84.3027C22.1788 83.0682 24.6783 82.5597 27.294 82.7127C33.8926 83.0983 37.6536 79.7761 38.9669 73.7802C39.2295 74.8682 39.2511 75.9821 39.0466 77.0852C38.1251 82.0857 34.1832 85.4036 28.857 85.7354C27.3156 85.8302 25.7634 85.9121 24.2434 86.1727C22.336 86.5002 20.6395 87.362 19.2488 88.7452C18.7299 89.2623 18.1379 89.5079 17.4296 89.2816C16.6976 89.0468 16.4544 88.4328 16.3359 87.7347C15.1669 80.7693 18.844 73.0671 25.0099 69.5855C25.0658 69.5553 25.139 69.5532 25.2036 69.5381" fill="#45AC36"/>
    <path d="M120.018 25.2699C114.602 23.4709 109.495 24.4404 104.417 26.7414C104.636 26.5195 104.836 26.2717 105.077 26.0756C110.597 21.618 116.677 20.6787 123.297 23.208C123.56 23.3093 123.814 23.4343 124.057 23.5721C125.388 24.3176 125.463 25.7352 124.148 26.4785C121.958 27.7152 120.542 29.5831 119.551 31.8238C119.282 32.4335 119.095 33.0798 118.877 33.7111C118.277 35.4605 117.439 37.0742 116.184 38.4509C113.4 41.5038 109.062 42.4905 105.258 40.9307C104.944 40.8014 104.645 40.6312 104.358 40.4179C106.615 40.6829 108.783 40.5063 110.845 39.5346C113.607 38.2312 115.129 35.9022 115.853 33.0755C116.587 30.2079 117.782 27.6506 119.904 25.5607C119.949 25.5155 119.956 25.4336 120.016 25.2677" fill="#45AC36"/>
    <path d="M86.4574 73.2129C89.1722 73.6395 91.3746 74.9752 92.9763 77.2159C95.2992 80.4691 95.2971 84.0563 94.2443 87.7319C93.5834 90.0414 93.3337 92.3661 93.9343 94.7166C94.1238 95.4599 94.479 96.1623 94.761 96.8819C95.2411 98.1035 94.4919 99.1053 93.1851 98.9911C86.3045 98.3835 79.4197 91.9503 78.4014 85.0991C79.861 87.4906 81.4369 89.7851 83.5596 91.6465C85.6845 93.5101 88.0764 94.8588 90.9181 95.6194C90.9181 95.363 90.9483 95.1928 90.9138 95.0398C90.2744 92.239 90.6921 89.5395 91.4951 86.8205C91.9687 85.2219 92.3541 83.5156 92.324 81.8652C92.2529 78.2845 90.2486 75.7638 87.2863 73.9303C87.1377 73.8377 86.9784 73.758 86.8255 73.6739C86.677 73.5921 86.5263 73.5059 86.3777 73.424C86.4036 73.3551 86.4294 73.284 86.4531 73.215" fill="#45AC36"/>
    <path d="M24.1618 50.1556C22.0347 54.6175 16.7602 56.4596 12.3511 54.3719C11.3414 53.8936 10.4071 53.2387 9.49856 52.5837C7.20791 50.9312 4.78163 49.8324 1.84942 50.1492C0.2972 50.3172 -0.47568 49.0439 0.31227 47.6263C2.5082 43.6728 5.83438 41.1176 10.181 39.9025C12.3059 39.3079 14.4674 39.2368 16.6891 39.631C11.856 40.7255 7.57605 42.699 4.46946 46.8894C5.31123 47.12 6.02383 47.2751 6.70844 47.5121C8.52331 48.1455 10.1487 49.1064 11.5739 50.412C13.3716 52.058 15.3931 53.174 17.94 52.9866C19.9787 52.8379 21.7247 51.974 23.3437 50.7933C23.6235 50.5887 23.8905 50.3711 24.1639 50.1578" fill="#45AC36"/>
    <path d="M113.442 62.9258C117.788 60.5084 121.235 57.2961 122.914 52.3646C122.111 52.3646 121.42 52.3516 120.731 52.3667C118.869 52.4098 117.065 52.0866 115.394 51.2852C110.13 48.7601 106.206 50.781 103.495 54.8939C103.403 55.0339 103.302 55.1697 103.03 55.2494C103.147 54.8034 103.228 54.3488 103.381 53.9158C105.222 48.6955 110.219 46.4031 115.702 48.1849C117.095 48.6373 118.55 48.9389 120.001 49.1587C121.416 49.3741 122.809 49.0898 124.12 48.4973C124.832 48.1741 125.526 48.0104 126.193 48.577C126.83 49.1178 126.779 49.8352 126.615 50.5311C125.259 56.3115 121.816 60.2973 116.26 62.4108C115.383 62.7448 114.451 62.9258 113.545 63.1778C113.51 63.096 113.476 63.0119 113.442 62.9279" fill="#45AC36"/>
    <path d="M43.6965 14.9584C41.0119 11.9162 37.9892 9.51186 33.761 8.65869C33.7911 9.06804 33.7847 9.36751 33.8407 9.65405C34.1916 11.5134 34.183 13.3705 33.7524 15.2104C32.6071 20.1162 33.7459 22.7252 38.1421 25.1727C38.2002 25.205 38.2433 25.261 38.2928 25.3084C35.3111 25.6014 31.8406 22.9234 30.973 19.6529C30.4822 17.8023 30.6996 15.9473 31.0096 14.1009C31.3735 11.9335 31.0376 9.8932 29.931 7.99511C29.5758 7.38755 29.3175 6.79076 29.7739 6.12934C30.2389 5.45715 30.9386 5.36882 31.6598 5.4593C37.4424 6.19613 41.479 9.2167 43.6448 14.6675C43.6814 14.758 43.6814 14.8636 43.6986 14.9605" fill="#45AC36"/>
    <path d="M25.9658 61.9125C24.3878 60.8611 22.7344 60.0769 20.7796 60.0554C18.8915 60.0338 17.3414 60.7965 16.0282 62.031C14.3037 63.6576 12.4135 64.9396 10.0712 65.4739C9.98292 65.4933 9.91618 65.6031 9.84298 65.6699C11.0314 68.0161 14.6805 70.1167 19.8947 71.4719C19.8969 71.5452 19.899 71.6206 19.9012 71.6938C18.5642 71.6938 17.2079 71.8382 15.8925 71.668C11.6815 71.1186 8.37257 69.0374 6.00872 65.4911C5.83434 65.2283 5.67287 64.9503 5.55662 64.6595C5.14757 63.6469 5.67287 62.6881 6.74715 62.7334C9.68582 62.8562 12.0217 61.6131 14.2521 59.8636C18.0476 56.8861 22.6181 57.5239 25.4965 60.8633C25.7376 61.1434 25.9335 61.4666 26.151 61.7682C26.0907 61.8177 26.0282 61.8651 25.9658 61.9125Z" fill="#45AC36"/>
    <path d="M106.222 23.43C106.468 19.6144 106.121 15.9647 103.861 12.7675C103.701 12.8257 103.609 12.8278 103.579 12.8731C102.274 14.9069 100.442 16.3138 98.3903 17.559C95.4538 19.3386 94.5173 22.1653 95.4323 25.7202C95.5098 26.0218 95.6002 26.3213 95.6906 26.6509C94.6336 25.9248 93.6906 23.9018 93.5571 22.2752C93.3074 19.2115 94.5905 16.8998 96.9737 15.0965C97.7854 14.4825 98.6207 13.8857 99.3656 13.1984C100.496 12.1513 101.273 10.8823 101.637 9.35052C101.979 7.90918 103.206 7.56446 104.244 8.55983C107.796 11.9682 108.87 19.0112 106.485 23.2921C106.459 23.3373 106.375 23.3503 106.22 23.4278" fill="#45AC36"/>
    <path d="M72.3901 75.1992C71.3782 76.0352 70.3621 76.7397 69.5117 77.6058C68.0607 79.0859 67.5095 80.9624 67.9444 82.9639C68.4805 85.4351 68.7926 87.8761 68.0693 90.5563C72.1296 89.9164 74.9498 87.6197 77.4558 84.7823C76.2157 88.3544 73.91 90.9829 70.4137 92.422C69.1005 92.9628 67.6538 93.23 66.2393 93.4476C65.7097 93.5294 64.9433 93.2644 64.5687 92.8809C64.0606 92.3639 64.3491 91.6486 64.7129 91.0324C65.9874 88.8758 65.9982 86.5683 65.5483 84.1812C64.7646 80.0231 67.2275 76.2808 71.3266 75.3285C71.6624 75.2488 72.0155 75.2445 72.3901 75.2014" fill="#45AC36"/>
    <path d="M30.9278 74.2537C27.6081 76.6323 24.9859 79.6658 21.5607 81.7599C21.0117 80.0234 22.185 77.3756 24.2302 75.5615C26.213 73.8034 28.7706 73.2519 30.9278 74.2537Z" fill="#45AC36"/>
    <path d="M51.189 18.8452C49.1696 15.258 51.6626 9.20183 56.1879 6.875C54.1255 10.8478 51.71 14.4544 51.189 18.8452Z" fill="#45AC36"/>
    <path d="M120.375 53.8037C118.866 57.6925 112.868 59.7285 110.386 57.3909C113.647 56.2189 116.922 55.0425 120.375 53.8037Z" fill="#45AC36"/>
    <path d="M20.7734 29.979C16.6593 31.1488 10.9477 27.2945 9.50098 22.4922C12.9542 25.4524 16.1684 28.585 20.7734 29.979Z" fill="#45AC36"/>
    <path d="M18.1832 46.1011H7.46191C8.96892 44.4034 10.8721 43.826 12.9087 43.7549C14.9259 43.686 16.7946 44.2074 18.1832 46.1011Z" fill="#45AC36"/>
    <path d="M104.997 70.0139C108.25 68.0232 114.605 69.8804 117.419 74.3056C113.451 72.442 109.598 70.2552 104.997 70.0139Z" fill="#45AC36"/>
    <path d="M116.727 26.6381C113.499 28.6073 109.979 30.1348 107.405 33.1403C107.191 29.441 112.539 25.8625 116.727 26.6381Z" fill="#45AC36"/>
    <path d="M84.2805 81.5967C84.8682 83.3827 85.3741 85.2808 86.1212 87.0798C86.8682 88.8831 87.8564 90.583 88.7692 92.3906C85.062 90.8135 82.3257 84.6603 84.2805 81.5967Z" fill="#45AC36"/>
    <path d="M35.3311 10.7598C38.5668 11.8392 40.7907 16.23 39.4495 18.5159C38.1147 16.0016 36.7563 13.4442 35.3311 10.7598Z" fill="#45AC36"/>
    <path d="M103.43 15.083C105.105 17.5606 103.659 22.0807 100.991 23.0524C101.794 20.4282 102.604 17.7826 103.43 15.083Z" fill="#45AC36"/>
    <path d="M69.7812 88.4777C71.0601 86.153 72.3259 83.8477 73.5681 81.5898C74.9309 83.5935 72.2527 88.245 69.7812 88.4777Z" fill="#45AC36"/>
    <path d="M20.663 66.3252C18.8374 68.2621 14.3164 67.9561 12.5381 66.3252H20.663Z" fill="#45AC36"/>
    </g>
    <defs>
    <clipPath id="clip0_1826_5428">
    <rect width="126.72" height="99" fill="white"/>
    </clipPath>
    </defs>
    </svg>
    