<svg width="31" height="31" viewBox="0 0 31 31" fill="none" xmlns="http://www.w3.org/2000/svg">
    <g clip-path="url(#clip0_1688_114)">
    <path d="M9.21826 1.64746H4.71826C3.92261 1.64746 3.15955 1.96353 2.59694 2.52614C2.03433 3.08875 1.71826 3.85181 1.71826 4.64746V9.14746M28.7183 9.14746V4.64746C28.7183 3.85181 28.4022 3.08875 27.8396 2.52614C27.277 1.96353 26.5139 1.64746 25.7183 1.64746H21.2183M21.2183 28.6475H25.7183C26.5139 28.6475 27.277 28.3314 27.8396 27.7688C28.4022 27.2062 28.7183 26.4431 28.7183 25.6475V21.1475M1.71826 21.1475V25.6475C1.71826 26.4431 2.03433 27.2062 2.59694 27.7688C3.15955 28.3314 3.92261 28.6475 4.71826 28.6475H9.21826" stroke="#F2EFEB" stroke-width="4" stroke-linecap="round" stroke-linejoin="round"/>
    </g>
    <defs>
    <clipPath id="clip0_1688_114">
    <rect width="30" height="30" fill="white" transform="translate(0.218262 0.147461)"/>
    </clipPath>
    </defs>
    </svg>
    