<svg width="35" height="31" viewBox="0 0 35 31" fill="none" xmlns="http://www.w3.org/2000/svg">
<path d="M1.81826 7.98097H8.21826L17.6183 0.496791C17.8536 0.309257 18.1374 0.191717 18.437 0.157718C18.7365 0.123718 19.0396 0.174641 19.3114 0.304619C19.5831 0.434597 19.8124 0.638341 19.9728 0.892372C20.1333 1.1464 20.2184 1.44038 20.2183 1.74044V28.5545C20.2184 28.8545 20.1333 29.1485 19.9728 29.4025C19.8124 29.6566 19.5831 29.8603 19.3114 29.9903C19.0396 30.1203 18.7365 30.1712 18.437 30.1372C18.1374 30.1032 17.8536 29.9857 17.6183 29.7981L8.21826 22.3124H1.81826C1.39392 22.3124 0.986949 22.1446 0.686891 21.846C0.386833 21.5473 0.218262 21.1423 0.218262 20.72V9.57334C0.218262 9.15102 0.386833 8.74599 0.686891 8.44736C0.986949 8.14873 1.39392 7.98097 1.81826 7.98097Z" fill="#FEF8F1"/>
<path d="M28.2183 12.6475L33.2183 17.6475" stroke="white" stroke-width="3" stroke-linecap="round"/>
<path d="M28.2183 17.6475L33.2183 12.6475" stroke="white" stroke-width="3" stroke-linecap="round"/>
</svg>
