<svg width="261" height="272" viewBox="0 0 261 272" fill="none" xmlns="http://www.w3.org/2000/svg">
<g clip-path="url(#clip0_336_12207)">
<path d="M218.016 65.9076C218.698 64.7171 219.294 63.6967 219.866 62.6702C225.599 52.454 232.312 42.9241 240.15 34.2081C242.986 31.0497 246.266 28.4015 250.186 26.634C252.742 25.486 255.413 24.9211 258.213 24.9333C258.693 24.9333 259.186 25.0123 259.661 25.1034C260.775 25.322 261.079 25.6561 260.994 26.7312C260.604 31.6085 258.967 36.006 255.73 39.7171C254.707 40.8894 253.521 41.9462 252.285 42.8877C250.94 43.9081 249.37 44.2907 247.69 43.6347C246.218 43.0638 245.037 43.6712 244.015 44.643C241.97 46.5745 239.913 48.4999 237.959 50.5225C234.35 54.2519 230.809 58.0541 227.236 61.826C226.512 62.5913 225.788 63.3627 225.07 64.134C225.13 64.2495 225.191 64.3649 225.246 64.4742C226.384 64.2859 227.516 64.0551 228.66 63.9275C229.786 63.8 230.924 63.6724 232.05 63.7392C233.663 63.8364 234.198 64.6443 233.949 66.2295C233.158 71.3437 232.373 76.464 231.594 81.5843C231.521 82.058 231.49 82.5439 231.417 83.2121C231.892 83.1513 232.293 83.1392 232.671 83.0481C237.15 81.973 241.641 81.6572 246.145 82.8719C253.332 84.8156 257.653 90.3246 257.89 97.7347C258.067 103.147 256.363 107.975 253.241 112.282C247.137 120.706 238.896 125.717 228.563 127.217C228.082 127.284 227.589 127.278 227.102 127.302C226.621 127.327 226.141 127.351 225.514 127.381C225.356 127.94 225.112 128.487 225.051 129.045C224.711 132.21 224.254 135.381 224.12 138.557C223.615 150.274 223.201 161.99 222.8 173.713C222.581 180.03 222.386 186.352 222.313 192.675C222.27 196.666 222.471 200.662 222.581 204.653C222.708 209.239 222.909 213.825 222.988 218.41C223.128 226.416 222.934 234.409 221.777 242.347C220.986 247.765 219.726 253.062 217.262 258C216.172 260.186 214.912 262.288 213.166 264.001C211.985 265.167 210.592 266.121 209.265 267.129C208.979 267.347 208.577 267.439 208.212 267.53C204.707 268.386 201.213 269.285 197.696 270.056C192.456 271.204 187.119 271.721 181.769 271.872C176.037 272.036 170.292 272.03 164.565 271.86C156.453 271.617 148.353 270.986 140.24 270.822C131.58 270.646 122.914 270.804 114.248 270.84C105.095 270.882 95.948 271.01 86.795 270.986C81.33 270.974 75.8529 270.919 70.4 270.554C63.8761 270.111 57.3704 269.364 50.8708 268.641C49.3311 268.471 47.8097 267.961 46.3369 267.463C41.2249 265.732 37.8351 262.276 36.1676 257.131C35.2365 254.258 34.1411 251.434 33.3134 248.537C32.1571 244.473 31.7007 240.276 31.3842 236.067C30.7087 227.047 30.9825 218.034 31.3842 209.008C31.6155 203.833 31.8102 198.652 31.7554 193.477C31.6824 186.401 31.2138 179.325 31.1651 172.249C31.0677 158.303 31.1469 144.358 31.1469 130.418C31.1469 128.153 31.1469 125.887 31.1469 123.579C30.6417 123.415 30.2401 123.294 29.8445 123.154C28.1648 122.565 26.406 122.133 24.8238 121.356C18.7745 118.38 13.1817 114.699 8.18528 110.162C5.68404 107.89 3.58445 105.291 2.05084 102.26C-2.00837 94.2422 0.12165 85.3501 7.39413 80.0658C10.6926 77.6666 14.4293 76.3668 18.4398 75.7412C22.3955 75.1278 26.2904 75.3221 30.1366 76.4276C30.7452 76.6037 31.3416 76.8102 32.0719 77.041C32.6318 74.1802 33.2038 71.4045 33.6907 68.6105C33.8124 67.912 33.8185 67.2985 34.7314 67.3168C34.7861 67.3168 34.8531 67.3228 34.8896 67.2985C37.7682 65.2638 41.1153 65.7618 44.2982 65.7618C47.4263 65.7618 50.5543 66.1931 53.6824 66.4543C56.9687 66.7276 60.249 67.0738 63.5414 67.3107C68.343 67.663 202.327 66.9645 218.022 65.9015L218.016 65.9076ZM31.6033 84.8459C31.2686 84.8095 31.0617 84.7548 30.8547 84.7609C26.5338 85.0039 22.2251 85.3804 18.0138 86.4434C16.1698 86.905 14.3867 87.5427 12.8713 88.7454C11.216 90.0634 10.4309 91.7701 10.8265 93.8778C11.0273 94.9286 11.3438 95.9733 11.7637 96.9572C12.8896 99.5933 14.7336 101.719 16.9123 103.541C20.8924 106.87 25.4445 109.22 30.2279 111.158C30.4531 111.249 30.7087 111.255 31.0191 111.31C31.0191 109.093 31.0373 106.991 31.0069 104.884C30.9947 104.301 30.8852 103.705 30.7209 103.147C30.161 101.276 30.1366 99.4293 30.8426 97.5889C30.9582 97.2913 31.0556 96.9694 31.0677 96.6535C31.2503 92.7723 31.4146 88.8911 31.5972 84.8459H31.6033ZM226.457 115.319C227.826 114.96 229.013 114.675 230.182 114.347C233.407 113.442 236.626 112.512 239.554 110.812C244.088 108.188 246.595 104.209 247.325 99.0952C247.672 96.6657 247.118 94.4001 245.074 92.8392C242.225 90.6708 238.921 90.0998 235.409 90.4339C234.235 90.5432 233.042 90.6526 231.867 90.5736C230.224 90.4582 230.176 90.44 229.92 92.0921C229.092 97.5342 228.252 102.976 227.431 108.425C227.096 110.654 226.798 112.889 226.451 115.325L226.457 115.319Z" fill="#F15A22"/>
<path d="M132.797 17.7783C133.168 19.4547 133.521 21.0764 133.923 22.8986C134.276 22.8986 134.744 22.9229 135.213 22.8986C138.883 22.6556 142.552 22.2669 146.222 22.194C150.385 22.109 154.554 22.2244 158.716 22.4066C161.741 22.5402 164.759 22.8621 167.766 23.2083C172.275 23.7307 176.803 24.1862 181.27 24.9515C187.867 26.0874 194.446 27.3811 200.994 28.7781C205.917 29.8289 210.689 31.402 215.229 33.619C218.284 35.1071 220.961 37.0871 223.207 39.6382C225.532 42.2803 225.319 43.8534 222.069 45.1593C218.825 46.4652 215.46 47.5403 212.07 48.4027C204.317 50.3707 196.448 51.798 188.549 53.0432C182.408 54.015 176.274 54.9808 170.121 55.8432C165.356 56.5114 160.578 57.0702 155.795 57.5864C150.64 58.1452 145.468 58.6068 140.307 59.0745C139.23 59.1717 138.14 59.1231 137.057 59.1353C131.16 59.2264 125.269 59.4876 119.396 60.0828C111.862 60.842 104.31 61.3948 96.7814 62.1844C84.3178 63.4963 71.8176 63.5388 59.3114 63.3141C55.307 63.2412 51.2965 63.0711 47.3164 62.6763C43.5615 62.3058 39.7396 62.2451 36.1064 61.1093C34.4693 60.5991 32.9175 59.7913 31.3839 59.0077C30.7266 58.6737 30.1484 58.1209 29.6494 57.5621C28.4566 56.232 28.3592 54.6588 29.5277 53.3044C30.3249 52.3751 31.3108 51.5672 32.3332 50.887C39.5083 46.0947 47.1581 42.2013 55.1427 38.9579C66.0909 34.5179 77.4105 31.3291 88.9917 29.0636C93.9759 28.0917 99.0088 27.3872 103.993 26.4336C107.596 25.7411 111.162 24.8665 114.728 23.9979C115.659 23.7732 116.578 23.3663 117.406 22.8743C119.128 21.8539 119.299 20.0742 117.863 18.6894C117.479 18.3189 116.998 18.0395 116.536 17.7722C116.116 17.5293 115.672 17.3288 115.215 17.1527C111.503 15.7496 110.724 13.1743 111.886 9.42066C112.763 6.59631 114.741 4.63445 117.23 3.14028C119.591 1.73114 122.202 1.0205 124.885 0.631771C128.202 0.151935 131.537 -0.261088 134.909 0.182305C138.365 0.637845 141.396 1.85869 143.453 4.84704C146.38 9.09874 145.151 13.6784 140.483 15.9015C138.305 16.9401 135.949 17.2863 133.594 17.6325C133.333 17.669 133.071 17.7236 132.803 17.7722L132.797 17.7783Z" fill="#F15A22"/>
</g>
<defs>
<clipPath id="clip0_336_12207">
<rect width="261" height="272" fill="white"/>
</clipPath>
</defs>
</svg>
