<svg width="20" height="35" viewBox="0 0 20 35" fill="none" xmlns="http://www.w3.org/2000/svg">
<path id="Vector" d="M15.4607 0H3.77929C1.69724 0 0 1.68848 0 3.75977V31.2402C0 33.3115 1.69724 35 3.77929 35H15.4607C17.5428 35 19.24 33.3115 19.24 31.2402V3.75977C19.24 1.68848 17.5496 0 15.4607 0ZM8.19762 1.54492H11.0974C11.4341 1.54492 11.702 1.85254 11.702 2.22852C11.702 2.60449 11.4341 2.91211 11.0974 2.91211H8.19762C7.86092 2.91211 7.59293 2.60449 7.59293 2.22852C7.59293 1.85254 7.86092 1.54492 8.19762 1.54492ZM5.45592 1.44238C5.88882 1.44238 6.24613 1.79102 6.24613 2.22852C6.24613 2.66602 5.88882 3.00781 5.45592 3.00781C5.02302 3.00781 4.6657 2.65918 4.6657 2.22168C4.6657 1.78418 5.01614 1.44238 5.45592 1.44238ZM9.64749 32.6143C8.9466 32.6143 8.38315 32.0537 8.38315 31.3564C8.38315 30.6592 8.9466 30.0986 9.64749 30.0986C10.3484 30.0986 10.9118 30.6592 10.9118 31.3564C10.9118 32.0537 10.3484 32.6143 9.64749 32.6143ZM17.0411 29.3604H2.20573V4.55273H17.0411V29.3604Z" fill="#FFFFF8"/>
</svg>
