<svg width="128.906" height="183.732" viewBox="0 0 128.906 183.732" fill="none" xmlns="http://www.w3.org/2000/svg">
<g clip-path="url(#clip0_334_4332)">
<path d="M72.7343 72.9524L69.2729 78.8193L74.6256 81.9773L78.087 76.1104L72.7343 72.9524Z" fill="#F15A22"/>
<path d="M67.54 81.7571L64.0786 87.624L69.4313 90.782L72.8927 84.9151L67.54 81.7571Z" fill="#F15A22"/>
<path d="M63.281 79.2399L64.602 80.0195L62.9841 82.7634C62.9686 82.9366 62.95 83.1099 62.9346 83.2831C63.0707 81.7858 63.1975 80.2917 63.3151 78.8037C63.3027 78.9491 63.2934 79.0914 63.281 79.2368V79.2399Z" fill="#F15A22"/>
<path d="M62.5571 87.2124C62.585 86.9401 62.6128 86.6679 62.6406 86.3926C62.6128 86.6648 62.585 86.937 62.5571 87.2124Z" fill="#F15A22"/>
<path d="M82.6619 15.4956C82.6372 15.5173 82.6155 15.5389 82.5939 15.5575C81.8607 16.2628 81.1183 16.9929 80.3728 17.7446C80.3387 17.7786 80.3016 17.8126 80.2676 17.8467C81.6071 16.501 82.928 15.2172 84.2272 14.0107C83.7075 14.4964 83.1847 14.9883 82.6619 15.4956Z" fill="#F15A22"/>
<path d="M77.9271 64.1553L74.4673 70.0195L79.82 73.1775L83.2798 67.3133L77.9271 64.1553Z" fill="#F15A22"/>
<path d="M96.6074 51.429L93.146 57.2959L98.496 60.4523L101.957 54.5854L96.6074 51.429Z" fill="#F15A22"/>
<path d="M83.127 55.3414L79.6641 61.2109L85.0167 64.3689L88.4797 58.4994L83.127 55.3414Z" fill="#F15A22"/>
<path d="M63.9647 68.8772L64.4442 68.0605L69.7928 71.2159L66.3312 77.0843L63.5625 75.4509C63.5501 75.6149 63.5378 75.7788 63.5254 75.9397C63.7079 73.369 63.8626 70.823 63.9894 68.3142C63.9801 68.5029 63.9739 68.6885 63.9616 68.8772H63.9647Z" fill="#F15A22"/>
<path d="M76.8492 21.3857L75.7324 23.279L75.3179 23.0346C75.8314 22.4747 76.3418 21.9271 76.8492 21.3857Z" fill="#F15A22"/>
<path d="M76.9379 27.9544L73.4766 33.8213L78.8239 36.9762L82.2853 31.1093L76.9379 27.9544Z" fill="#F15A22"/>
<path d="M80.1436 17.9738C79.6301 18.4935 79.1135 19.0194 78.5938 19.5515C79.1135 19.0132 79.627 18.4904 80.1436 17.9707V17.9738Z" fill="#F15A22"/>
<path d="M72.9918 25.624L73.9971 26.218L70.5355 32.0863L68.4907 30.8799C70.0034 29.0609 71.5038 27.3069 72.9918 25.624Z" fill="#F15A22"/>
<path d="M71.7486 36.7584L68.2856 42.6279L73.633 45.7828L77.096 39.9132L71.7486 36.7584Z" fill="#F15A22"/>
<path d="M92.6724 13.4944L89.2139 19.3597L83.8652 16.2043L86.2318 12.1921C86.8071 11.6816 87.3794 11.1867 87.9456 10.7041L92.6724 13.4944Z" fill="#F15A22"/>
<path d="M64.4382 49.1376L66.5479 45.5615L71.8966 48.7169L68.435 54.5853L64.4412 52.2311C64.4412 52.4446 64.4351 52.6642 64.4351 52.8776C64.4443 51.4515 64.4443 50.0409 64.4351 48.6612C64.4351 48.8221 64.4382 48.9767 64.4412 49.1376H64.4382Z" fill="#F15A22"/>
<path d="M64.4039 56.169L66.6992 57.5239L64.2677 61.6475C64.2677 61.6785 64.2677 61.7125 64.2646 61.7465C64.3327 59.6801 64.3791 57.6446 64.41 55.6523C64.41 55.8287 64.41 55.9957 64.4039 56.172V56.169Z" fill="#F15A22"/>
<path d="M80.0333 41.648L76.5703 47.5176L81.9203 50.674L85.3833 44.8044L80.0333 41.648Z" fill="#F15A22"/>
<path d="M62.1707 90.8559L62.344 90.562L67.6957 93.7205L64.2341 99.5889L61.3169 97.8689C61.2953 98.0266 61.2736 98.1844 61.252 98.3453C61.6015 95.7313 61.9201 93.1111 62.2078 90.4971C62.1955 90.6177 62.1831 90.7384 62.1707 90.8621V90.8559Z" fill="#F15A22"/>
<path d="M74.8394 50.4527L71.3765 56.3223L76.7265 59.4787L80.1894 53.6091L74.8394 50.4527Z" fill="#F15A22"/>
<path d="M69.639 59.2598L66.1792 65.124L71.5292 68.2805L74.989 62.4162L69.639 59.2598Z" fill="#F15A22"/>
<path d="M85.226 32.847L81.7646 38.7139L87.1147 41.8703L90.5761 36.0034L85.226 32.847Z" fill="#F15A22"/>
<path d="M103.899 20.1192L100.439 25.9834L105.792 29.1414L109.251 23.2772L103.899 20.1192Z" fill="#F15A22"/>
<path d="M90.4189 24.0345L86.9575 29.9014L92.3075 33.0578L95.7689 27.1909L90.4189 24.0345Z" fill="#F15A22"/>
<path d="M98.7065 28.9241L95.2451 34.791L100.598 37.949L104.059 32.0821L98.7065 28.9241Z" fill="#F15A22"/>
<path d="M106.993 33.8147L103.531 39.6816L108.881 42.8381L112.343 36.9712L106.993 33.8147Z" fill="#F15A22"/>
<path d="M82.1334 19.147L78.6704 25.0166L84.0178 28.1715L87.4807 22.3019L82.1334 19.147Z" fill="#F15A22"/>
<path d="M88.3209 46.5367L84.8579 52.4062L90.2106 55.5643L93.6736 49.6947L88.3209 46.5367Z" fill="#F15A22"/>
<path d="M93.5107 37.7298L90.0493 43.5967L95.402 46.7547L98.8634 40.8878L93.5107 37.7298Z" fill="#F15A22"/>
<path d="M101.801 42.6243L98.3398 48.4912L103.69 51.6476L107.151 45.7807L101.801 42.6243Z" fill="#F15A22"/>
<path d="M91.4117 60.231L87.9487 66.1006L93.2987 69.257L96.7617 63.3875L91.4117 60.231Z" fill="#F15A22"/>
<path d="M66.3037 33.5459L68.8032 35.0215L65.3416 40.8899L64.2341 40.2371C64.3022 41.8891 64.3517 43.5998 64.3857 45.3538C64.3207 42.1984 64.2032 39.1977 64.0361 36.3857C64.794 35.4206 65.5488 34.477 66.3037 33.5459Z" fill="#F15A22"/>
<path d="M117.163 15.4248C117.173 15.1123 117.179 14.803 117.179 14.4967C117.179 14.209 117.179 13.9244 117.179 13.6491C117.17 13.2624 117.154 12.8819 117.139 12.5076C117.129 12.3684 117.133 12.223 117.123 12.0838H117.117C117.077 11.4496 117.027 10.8309 116.953 10.2432C117.173 11.9817 117.241 13.9182 117.154 16.0404C117.16 15.83 117.157 15.632 117.163 15.4279V15.4248Z" fill="#F15A22"/>
<path d="M80.6509 97.3992L84.1125 91.5308L88.1928 93.9376C88.7527 92.9445 89.3158 91.9515 89.8633 90.9616L85.8479 88.592L89.3096 82.7236L93.1022 84.9602C90.4696 89.9438 87.6576 94.9955 84.6539 100.091C84.7034 100.007 84.7498 99.9235 84.7962 99.8399L80.654 97.3961L80.6509 97.3992Z" fill="#F15A22"/>
<path d="M113.272 1.90332C113.572 2.15699 113.847 2.44468 114.11 2.75094C113.844 2.44778 113.566 2.16317 113.272 1.90332Z" fill="#F15A22"/>
<path d="M64.3887 45.4961C64.4072 46.5077 64.4227 47.5316 64.432 48.571C64.4227 47.5316 64.4072 46.5046 64.3887 45.4961Z" fill="#F15A22"/>
<path d="M73.1865 25.4044C73.8887 24.6125 74.5879 23.836 75.2808 23.0781C74.5848 23.836 73.8887 24.6125 73.1865 25.4044Z" fill="#F15A22"/>
<path d="M95.6054 15.2214L92.145 21.0889L97.4956 24.2444L100.956 18.3769L95.6054 15.2214Z" fill="#F15A22"/>
<path d="M111.363 0.755195L107.893 6.63903L102.544 3.48366L104.149 0.761382C102.961 1.10785 101.702 1.59353 100.397 2.21533C99.8989 2.45043 99.3947 2.7041 98.8812 2.97633L98.875 2.9887C98.2284 3.33517 97.5695 3.7033 96.8982 4.11473L97.8727 4.69012L94.4111 10.5585L90.7607 8.40541C99.5896 1.48526 106.992 -1.39788 111.769 0.928431C111.636 0.869655 111.503 0.813972 111.367 0.758289L111.363 0.755195Z" fill="#F15A22"/>
<path d="M108.728 30.8731L112.189 25.0078L115.716 27.0866C115.27 29.2954 114.72 31.6155 114.079 34.0284L108.731 30.8731H108.728Z" fill="#F15A22"/>
<path d="M110.5 45.6265C110.636 45.2367 110.775 44.8377 110.905 44.4448C110.942 44.3334 110.986 44.2159 111.026 44.1045C110.667 45.1717 110.296 46.2483 109.909 47.3403C110.113 46.7618 110.302 46.1957 110.5 45.6265Z" fill="#F15A22"/>
<path d="M111.023 44.0986C111.79 41.8156 112.495 39.5852 113.127 37.429C113.414 36.4422 113.68 35.474 113.943 34.5181C113.983 34.3572 114.036 34.1933 114.076 34.0324C114.076 34.0324 114.076 34.0324 114.076 34.0293C113.226 37.228 112.208 40.5906 111.029 44.1017H111.023V44.0986Z" fill="#F15A22"/>
<path d="M116.335 23.7241C116.347 23.6561 116.36 23.5818 116.372 23.5138L113.922 22.0691L117.124 16.6431C117.133 16.4451 117.139 16.2564 117.145 16.0615L117.155 16.0677C117.059 18.4095 116.786 20.9678 116.335 23.7241Z" fill="#F15A22"/>
<path d="M100.81 6.4251L97.3481 12.292L102.698 15.4484L106.16 9.58153L100.81 6.4251Z" fill="#F15A22"/>
<path d="M109.088 11.3053L105.627 17.1729L110.981 20.3299L114.441 14.4624L109.088 11.3053Z" fill="#F15A22"/>
<path d="M116.95 10.2245L116.18 11.5331L110.828 8.37462L114.132 2.77539C115.62 4.49847 116.545 7.02276 116.95 10.2276V10.2245Z" fill="#F15A22"/>
<path d="M81.0249 77.847L77.5635 83.7139L82.9135 86.8703L86.3749 81.0034L81.0249 77.847Z" fill="#F15A22"/>
<path d="M75.8305 86.6517L72.3691 92.5186L77.7192 95.675L81.1805 89.8081L75.8305 86.6517Z" fill="#F15A22"/>
<path d="M107.475 53.8767L106.624 53.3756L109.479 48.5342C109.619 48.1445 109.745 47.7701 109.882 47.3896L109.891 47.3958C108.787 50.5048 107.565 53.7097 106.225 57.0011C106.652 55.9555 107.073 54.9068 107.475 53.8798V53.8767Z" fill="#F15A22"/>
<path d="M101.43 62.1799L104.892 56.3115L106.194 57.0787C105.35 59.1544 104.453 61.2704 103.518 63.4111L101.43 62.1799Z" fill="#F15A22"/>
<path d="M86.2176 69.043L82.7578 74.9072L88.1078 78.0637L91.5676 72.1994L86.2176 69.043Z" fill="#F15A22"/>
<path d="M94.683 81.938L91.042 79.7881L94.5005 73.9228L97.7487 75.8377C98.256 74.8044 98.7541 73.7774 99.2398 72.7565L96.2329 70.984L99.6945 65.1156L102.126 66.551C102.584 65.5332 103.029 64.5278 103.469 63.5225C100.474 70.3684 97.031 77.5143 93.1703 84.8274C93.6807 83.8622 94.1881 82.9001 94.683 81.938Z" fill="#F15A22"/>
<path d="M48.7511 149.871C60.3424 137.151 72.9298 119.96 84.648 100.094C97.189 78.8324 106.578 58.1771 111.973 41.2C120.607 36.7392 126.658 34.7006 128.164 36.0926C135.92 43.2603 84.7841 135.889 44.1479 159.338C45.7906 156.457 47.3281 153.293 48.7511 149.868V149.871Z" fill="#F15A22"/>
<path d="M58.2788 12.7796C71.0426 16.0371 66.5601 179.859 20.3093 176.169L11.6537 183.865L1.63691 177.957L4.2571 166.344C-16.989 130.261 48.6148 10.3141 58.2788 12.7796Z" fill="#F15A22"/>
</g>
<defs>
<clipPath id="clip0_334_4332">
<rect width="128.906" height="183.732" fill="white" transform="translate(0.046875 0.133789)"/>
</clipPath>
</defs>
</svg>
