<svg width="158" height="181" viewBox="0 0 158 181" fill="none" xmlns="http://www.w3.org/2000/svg">
<path fill-rule="evenodd" clip-rule="evenodd" d="M135.478 49.9246C126.963 30.1698 112.607 17.2778 90.6548 14.2513C81.7892 13.0249 73.5528 13.7378 66.1325 16.8624C66.1325 16.8624 66.1382 16.8598 66.139 16.8578C66.1026 16.8723 66.0688 16.8926 66.0324 16.9071C63.5543 17.9587 61.17 19.2858 58.8819 20.9012C58.6714 21.0484 58.4617 21.1935 58.2537 21.3464C57.8508 21.6429 57.453 21.951 57.057 22.2668C56.7679 22.4954 56.4806 22.7318 56.1945 22.971C55.8552 23.2564 55.518 23.5425 55.183 23.8413C54.8168 24.1661 54.4582 24.5081 54.0975 24.8493C53.8384 25.0989 53.5754 25.3398 53.3172 25.5992C52.6953 26.2201 52.0816 26.863 51.4791 27.5386C50.7269 28.3824 50.0161 29.2419 49.3267 30.1074C49.124 30.3643 48.9325 30.6231 48.7347 30.8796C48.2521 31.5086 47.7811 32.1444 47.3274 32.7845C47.124 33.0744 46.9205 33.3642 46.7233 33.6564C46.2757 34.3178 45.8439 34.9876 45.4253 35.6601C45.2706 35.9093 45.1105 36.1541 44.96 36.4049C44.4061 37.3316 43.8738 38.2642 43.3729 39.2136C43.3529 39.2534 43.3342 39.2961 43.3122 39.3351C42.8415 40.2368 42.3976 41.1487 41.9745 42.0685C41.8427 42.3573 41.7178 42.6464 41.5901 42.9368C41.2849 43.6289 40.9914 44.3279 40.7103 45.0317C40.5834 45.3508 40.4586 45.6708 40.3367 45.9894C40.0558 46.7359 39.7901 47.486 39.5349 48.2399C39.451 48.4901 39.3601 48.74 39.2783 48.991C38.9489 50.0131 38.6373 51.0444 38.3568 52.0876C38.3536 52.0959 38.3512 52.1021 38.3481 52.1104C38.3481 52.1104 38.3473 52.1125 38.3465 52.1145C36.9184 57.3967 36.0954 62.908 35.7457 68.5957C35.5342 72.0874 35.8964 75.623 36.8291 79.0567C39.6358 89.4346 44.4971 98.0816 51.8624 104.574C51.1856 105.426 50.5013 106.272 49.842 107.139C39.2444 121.116 28.997 135.342 21.1696 151.131C20.4738 152.546 19.697 154.031 19.4818 155.554C19.0841 158.571 21.5708 160.609 24.3413 159.817C26.4232 159.181 27.5193 157.482 28.5385 155.76C31.9737 149.932 35.1515 143.927 38.8096 138.248C45.1309 128.435 51.7576 118.841 58.9557 109.682C61.0804 110.924 63.3398 112.05 65.7751 113.02C78.723 118.19 91.9943 121.033 105.266 118.11C121.559 114.046 132.218 104.282 137.593 89.534C142.418 76.3144 140.991 62.7351 135.471 49.9264L135.478 49.9246Z" fill="#C41523"/>
</svg>
