<svg width="116" height="171" viewBox="0 0 116 171" fill="none" xmlns="http://www.w3.org/2000/svg">
<g clip-path="url(#clip0_334_4429)">
<path d="M29.4659 13.9745C31.8778 12.5187 44.846 11.4572 48.0247 12.3158C48.0386 12.647 48.0735 13.011 48.0642 13.3726C47.9736 17.0564 49.0959 20.3272 51.2801 23.2761C53.3551 26.0756 56.0621 28.1263 58.9922 29.8994C64.2343 33.0722 69.9667 35.0506 75.8315 36.6557C82.3679 38.4427 89.0529 39.082 95.81 39.096C101.261 39.1076 106.673 38.6107 112.066 37.8758C113.012 37.7475 113.955 37.5889 114.887 37.3859C116.088 37.1246 116.237 36.8633 115.712 35.7598C114.743 33.7301 113.767 31.7028 112.707 29.7221C109.991 24.6292 106.671 19.9422 102.93 15.5703C99.6394 11.7255 95.9355 8.30537 91.5462 5.74376C87.9678 3.65575 84.0897 2.27696 80.0651 1.33211C74.6418 0.0606385 69.1581 -0.359297 63.6139 0.321932C60.2957 0.730202 57.0775 1.51408 54.1149 3.13317C51.9958 4.29265 50.181 5.79042 49.1354 8.04174C48.8054 8.7533 48.6009 9.52085 48.2989 10.384C47.8574 10.3584 47.4136 10.3584 46.9767 10.3047C42.046 9.70282 37.1176 9.70749 32.1938 10.3957C31.2086 10.5334 30.2234 10.6943 29.2428 10.8646C28.16 11.0536 28.002 10.9813 27.4908 9.97344C26.6636 8.33803 25.8457 6.69795 25.0045 5.06953C24.7187 4.51662 24.4236 3.95437 24.0426 3.46678C23.2084 2.39595 21.8676 2.20231 20.6849 2.9092C19.6439 3.53444 19.2001 4.91556 19.716 6.08904C20.018 6.7726 20.3991 7.4235 20.7546 8.08374C23.2525 12.71 25.3601 17.5113 27.1725 22.4455C27.4583 23.2271 27.6604 24.0389 27.8951 24.8392C28.0508 25.3641 27.8835 25.6977 27.3514 25.91C21.7654 28.1286 17.8919 32.2673 14.848 37.2926C10.856 43.8809 8.56954 51.1014 7.52855 58.6813C6.27147 67.8219 4.39863 76.8365 2.57923 85.8674C1.85658 89.4579 1.39883 93.102 0.831866 96.7251C0.269549 100.316 0.137102 103.939 0.0580992 107.564C0.0302158 108.826 -0.0789946 110.079 0.102248 111.351C0.27652 112.585 0.246313 113.844 0.336934 115.093C0.429879 116.38 0.555355 117.668 0.67386 118.954C1.04564 122.987 1.69858 126.988 2.78139 130.88C3.61557 133.88 4.69605 136.836 5.94616 139.687C9.22248 147.166 13.9603 153.608 20.2341 158.838C31.3271 168.086 44.1233 172.141 58.4461 170.72C72.1416 169.362 83.5924 163.25 92.6452 152.877C102.565 141.514 106.643 128.106 105.709 113.103C105.397 108.084 104.426 103.178 102.86 98.4095C100.852 92.2924 98.1708 86.4857 94.8388 80.9682C91.0141 74.6342 86.4807 68.8414 81.7335 63.2049C75.6758 56.01 69.4857 48.9248 63.8927 41.3426C61.5877 38.2188 58.9457 35.3772 55.9785 32.8763C51.7402 29.3045 47.1022 26.4302 41.644 25.1074C39.3274 24.5475 36.9758 24.3609 34.5965 24.4402C33.3092 24.4845 33.3371 24.4659 32.9025 23.2947C31.8453 20.4438 30.7578 17.6069 29.6913 14.7607C29.5937 14.4994 29.5379 14.2218 29.4705 13.9722L29.4659 13.9745Z" fill="#EE3135"/>
</g>
<defs>
<clipPath id="clip0_334_4429">
<rect width="116" height="171" fill="white"/>
</clipPath>
</defs>
</svg>
