<svg width="191.983" height="171.772" viewBox="0 0 191.983 171.772" fill="none" xmlns="http://www.w3.org/2000/svg">
<g id="pi&#195;&#177;a" clip-path="url(#clip0_801_2371)">
<path id="Vector" d="M53.2748 80.5085C52.3183 80.0713 51.3581 79.6382 50.4022 79.1985C45.6904 77.0307 41.7494 73.927 38.8102 69.6216C38.3864 69.0026 37.767 68.4133 38.1531 67.3405C40.6284 67.7593 42.8649 69.0363 45.3207 69.51C47.9056 70.0095 50.4845 70.5622 53.0817 70.9841C55.581 71.3909 58.1082 71.5703 60.5792 71.4038C61.0903 70.7835 60.668 70.4099 60.3704 70.0689C59.9218 69.5555 59.4052 69.1027 58.9332 68.6092C55.2546 64.7577 53.0248 60.1732 52.0524 54.9596C52.0022 54.6909 52.0895 54.3956 52.1226 53.9974C53.0495 53.8558 53.5481 54.5283 54.0669 55.0026C57.1152 57.7848 60.5019 60.079 64.0966 62.0754C68.5555 64.5528 73.2857 66.3785 78.1709 67.8092C78.6078 67.9362 79.0744 67.9588 79.8672 68.0822C79.5837 67.4658 79.4877 67.1122 79.282 66.8395C78.1636 65.3586 76.9637 63.94 75.8952 62.4278C72.3964 57.4836 70.7689 51.9583 70.9186 45.9134C70.9295 45.4599 71.0825 45.0122 71.1552 44.6322C71.9702 44.4093 72.2222 44.9157 72.4343 45.3048C74.4254 48.93 77.0472 52.0574 79.9318 54.9977C81.866 56.9651 83.9975 58.6555 86.3877 60.0039C89.8047 61.9305 93.4861 62.7004 97.3926 62.2537C97.9383 62.1927 98.4626 61.9435 99.1974 61.7179C98.8943 61.0365 98.6907 60.5244 98.4423 60.0345C97.3382 57.8663 95.9747 55.7922 95.1552 53.5235C92.7344 46.803 93.5888 40.2665 96.8439 34.0042C98.8934 30.0586 101.779 26.7615 105.087 23.8276C108.881 20.4646 112.692 17.122 116.521 13.8023C117.845 12.6536 119.238 11.5747 120.632 10.5094C125.05 7.13209 129.473 3.75853 133.918 0.417054C137.666 -2.39973 141.651 -4.85465 145.75 -7.12599C148.489 -8.64382 151.372 -9.84244 154.373 -10.7417C157.782 -11.764 161.234 -12.0917 164.793 -11.6353C170.192 -10.9443 174.527 -8.35068 178.185 -4.46263C178.787 -3.82337 179.322 -3.12054 179.853 -2.42386C186.361 6.11638 192.852 14.6705 199.375 23.2017C201.418 25.8755 202.928 28.7911 203.769 32.0511C205.093 37.1894 204.392 42.1205 202.217 46.8808C200.494 50.6534 197.959 53.8777 195.144 56.8701C192.002 60.2098 188.604 63.3002 184.981 66.1078C179.507 70.352 174.011 74.5744 168.401 78.6372C164.774 81.2636 160.941 83.6148 157.172 86.0426C154.879 87.5204 152.584 89.0104 150.195 90.325C146.569 92.3233 142.662 93.5652 138.515 93.8838C131.446 94.4236 125.186 92.5194 119.996 87.5435C118.736 86.336 117.512 85.091 116.127 83.7206C115.703 84.2176 115.227 84.5732 115.028 85.0455C113.343 89.0653 113.193 93.1751 114.378 97.3618C115.511 101.366 117.578 104.899 119.932 108.264C121.155 110.014 122.661 111.57 124.027 113.223C124.45 113.735 124.836 114.279 125.206 114.764C124.825 115.436 124.326 115.316 123.861 115.206C118.078 113.815 113.226 110.883 109.361 106.364C108.284 105.105 107.338 103.735 106.332 102.414C105.922 101.879 105.516 101.343 105.147 100.858C104.316 101.04 104.422 101.597 104.427 102.047C104.531 111.225 106.057 120.098 110.096 128.438C110.467 129.207 110.743 130.023 111.206 131.163C110.413 130.972 109.939 130.947 109.549 130.751C104.908 128.409 101.163 125.085 98.4937 120.595C98.0473 119.842 97.5831 119.098 97.0961 118.371C97.0091 118.244 96.7704 118.218 96.4128 118.068C94.9644 121.729 94.4687 125.582 94.2206 129.426C93.972 133.263 94.1268 137.123 94.1059 140.977C93.026 141.024 92.6237 140.273 92.1383 139.7C88.7703 135.718 86.8417 131.09 86.0105 125.976C85.8552 125.017 85.6999 124.059 85.5311 123.102C85.5182 123.031 85.4017 122.977 85.1775 122.775C83.4138 125.171 82.5934 127.963 81.7094 130.68C80.8047 133.456 80.0591 136.302 79.5272 139.17C79.003 141.998 78.8299 144.892 78.5118 147.69C77.5348 147.874 77.2698 147.246 76.9867 146.789C74.7986 143.269 73.248 139.506 72.7423 135.358C72.6016 134.213 72.4505 133.068 72.3121 131.994C71.3595 131.732 71.1434 132.383 70.8312 132.82C65.7343 139.971 61.8906 147.684 60.2895 156.399C60.2051 156.854 60.0179 157.293 59.9048 157.657C59.0788 157.882 58.9092 157.34 58.6979 156.938C57.1296 153.955 56.3181 150.752 56.0783 147.409C55.8747 144.579 55.9174 141.755 56.6371 138.978C56.7966 138.365 56.8093 137.714 56.9316 136.742C53.1035 139.717 49.6318 142.507 46.0609 145.166C42.5053 147.817 39.1471 150.782 35.2188 152.798C34.3274 151.82 34.66 151.023 34.7679 150.287C35.4494 145.619 37.0284 141.214 38.8028 136.871C39.0836 136.183 39.3181 135.472 39.7128 134.396C39.0071 134.651 38.6621 134.733 38.3549 134.89C34.2873 137 30.2768 139.232 26.1431 141.205C21.9946 143.184 17.5679 144.447 13.1303 145.621C12.7072 145.732 12.2301 145.649 11.8239 145.655C11.4289 144.585 12.0622 143.996 12.4369 143.359C15.6488 137.865 19.3705 132.749 23.7767 128.143C25.7271 126.104 27.712 124.103 29.6522 122.113C29.3185 121.168 28.6454 121.548 28.1571 121.619C24.3795 122.172 20.5847 122.411 16.7708 122.321C14.9309 122.279 13.0828 122.198 11.4264 121.662C11.0116 120.938 11.3808 120.563 11.725 120.243C12.8736 119.189 13.989 118.082 15.2314 117.149C20.6926 113.053 26.1944 109.012 31.6708 104.938C31.7905 104.849 31.8043 104.616 31.928 104.291C30.5255 103.782 29.0318 104.135 27.6379 103.824C26.2098 103.503 24.7641 103.241 23.3632 102.826C22.0577 102.436 20.7652 101.955 19.5362 101.371C18.2188 100.746 16.931 100.027 15.7207 99.2105C14.5347 98.4109 13.3183 97.5878 12.3387 96.0753C15.0117 95.5834 17.4073 96.2787 19.7797 96.0395C22.2054 95.796 24.6513 95.696 27.0573 95.3274C29.4634 94.9588 31.8509 94.4107 34.2108 93.798C36.5424 93.1936 38.8315 92.4216 41.0722 91.4544C40.684 90.3075 39.8015 90.2781 39.1324 90.0305C35.2116 88.5854 31.843 86.3116 28.8984 83.3817C28.2143 82.6999 27.4365 82.0772 27.2143 81.0648C27.7305 80.2242 28.4417 80.6313 29.0479 80.7895C34.1125 82.1026 39.2702 82.3449 44.4584 82.1387C47.3731 82.0228 50.28 81.7457 53.254 80.5083L53.2748 80.5085Z" fill="#008E4A"/>
</g>
<defs>
<clipPath id="clip0_801_2371">
<rect width="191.983" height="171.772" fill="white" transform="matrix(0.251725 -0.967799 0.967625 0.252393 0 143.604)"/>
</clipPath>
</defs>
</svg>
