<svg width="270" height="392" viewBox="0 0 270 392" fill="none" xmlns="http://www.w3.org/2000/svg">
<path d="M31.8408 104.967C23.5499 99.1842 14.4688 94.6369 8.74589 86.1465C7.86663 84.8431 7.49479 83.1989 6.99125 81.9671C8.76719 78.2061 11.9956 76.9918 14.9239 75.5587C23.0541 71.5788 31.5832 68.9546 40.6934 68.3639C43.581 68.178 46.7242 68.9352 49.8036 66.2568C49.4646 64.6958 49.0599 62.8366 48.6532 60.9774C47.2355 54.4972 45.7598 48.0287 44.4389 41.5292C44.1136 39.9256 44.1349 38.2117 44.2569 36.5655C44.4835 33.5036 46.2672 31.5359 49.238 31.3132C51.5349 31.1408 53.8938 31.2299 56.1791 31.5437C63.769 32.5875 71.2523 34.0962 78.358 37.1349C80.132 37.8941 82.0532 38.3104 83.9879 38.9069C86.738 35.5623 86.6141 31.78 87.2261 28.2629C88.5469 20.6673 90.6811 13.3466 94.4964 6.61664C95.6061 4.65865 97.2077 2.97761 98.6873 1.03706C107.689 2.97761 113.6 8.95615 119.067 15.0644C124.546 21.1844 129.138 28.1003 134.562 35.2544C135.804 33.9084 137.309 32.7502 138.201 31.2299C142.789 23.4329 148.129 16.2497 154.985 10.3099C159.493 6.40554 164.163 2.67743 170.521 0.800781C172.082 2.65419 173.836 4.19772 174.919 6.11891C178.374 12.2446 180.657 18.8274 181.872 25.7801C182.608 29.9943 183.475 34.1834 184.418 39.0793C187.399 38.1942 189.837 37.3944 192.314 36.7495C199.054 34.9929 205.786 33.2015 212.572 31.6425C214.805 31.1292 217.199 31.0905 219.505 31.1912C223.214 31.3539 224.882 33.0678 225.19 36.7843C225.751 43.5395 224.039 49.9809 222.422 56.4455C221.636 59.5907 219.67 62.5383 220.53 65.9953C222.805 68.8326 226.015 68.1993 228.881 68.3484C238.022 68.8209 246.503 71.604 254.652 75.518C257.6 76.9337 260.805 78.2042 262.505 82.2422C258.187 93.0934 247.384 97.846 238.332 105.145C239.527 106.981 240.379 108.688 241.593 110.078C244.651 113.582 248.106 116.758 250.988 120.393C267.012 140.608 271.92 163.753 268.544 188.949C265.55 211.291 257.796 232.182 248.226 252.378C240.255 269.202 231.482 285.648 223.022 302.242C218.491 311.131 213.872 319.976 209.289 328.84C203.011 340.989 195.839 352.549 187.081 363.1C180.88 370.572 173.939 377.209 165.904 382.668C146.148 396.087 124.149 396.145 104.188 383.038C89.9529 373.69 79.4677 360.84 70.6577 346.628C64.3597 336.47 58.8207 325.819 53.3283 315.188C42.1866 293.621 31.1262 272.006 20.3795 250.24C13.2952 235.893 7.73688 220.882 4.23148 205.249C2.27156 196.514 0.451078 187.588 0.0869813 178.685C-0.873613 155.145 5.9009 134.033 22.1535 116.456C25.0837 113.287 28.1243 110.221 31.0933 107.088C31.3005 106.871 31.3218 106.478 31.8408 104.965V104.967Z" fill="#FCAF17"/>
</svg>
