<svg width="36" height="36" viewBox="0 0 36 36" fill="none" xmlns="http://www.w3.org/2000/svg">
<path d="M21.2234 24.4792H20.1847V16.1895C20.1847 15.8237 20.0394 15.4729 19.7808 15.2142C19.5221 14.9555 19.1713 14.8102 18.8054 14.8102H14.7779C14.412 14.8102 14.0612 14.9555 13.8025 15.2142C13.5439 15.4729 13.3985 15.8237 13.3985 16.1895C13.3985 16.5554 13.5439 16.9062 13.8025 17.1649C14.0612 17.4235 14.412 17.5688 14.7779 17.5688H17.4261V24.4792H14.7779C14.412 24.4792 14.0612 24.6245 13.8025 24.8832C13.5439 25.1419 13.3985 25.4927 13.3985 25.8585C13.3985 26.2243 13.5439 26.5751 13.8025 26.8338C14.0612 27.0925 14.412 27.2378 14.7779 27.2378H21.2234C21.5892 27.2378 21.94 27.0925 22.1987 26.8338C22.4574 26.5751 22.6027 26.2243 22.6027 25.8585C22.6027 25.4927 22.4574 25.1419 22.1987 24.8832C21.94 24.6245 21.5892 24.4792 21.2234 24.4792ZM17.9999 11.8102C18.4091 11.8102 18.8091 11.6889 19.1494 11.4615C19.4896 11.2342 19.7548 10.9111 19.9114 10.533C20.068 10.155 20.109 9.73897 20.0291 9.33763C19.9493 8.93629 19.7523 8.56763 19.4629 8.27828C19.1736 7.98893 18.8049 7.79188 18.4036 7.71205C18.0022 7.63222 17.5862 7.67319 17.2082 7.82979C16.8301 7.98638 16.507 8.25156 16.2796 8.5918C16.0523 8.93204 15.931 9.33206 15.931 9.74126C15.931 10.29 16.1489 10.8162 16.5369 11.2042C16.9249 11.5922 17.4512 11.8102 17.9999 11.8102ZM17.9999 0.757812C13.4288 0.762924 9.04635 2.58106 5.81407 5.81334C2.58179 9.04562 0.763656 13.4281 0.758545 17.9992C0.766204 22.5695 2.58516 26.9505 5.81689 30.1822C9.04861 33.414 13.4296 35.2329 17.9999 35.2406C22.5726 35.2406 26.958 33.4241 30.1914 30.1907C33.4248 26.9573 35.2413 22.5719 35.2413 17.9992C35.2413 13.4265 33.4248 9.04108 30.1914 5.8077C26.958 2.57431 22.5726 0.757813 17.9999 0.757812ZM28.1103 28.3523C25.7178 30.6832 22.5927 32.1147 19.265 32.4038C15.9374 32.693 12.6122 31.822 9.85353 29.9387C7.0949 28.0554 5.07274 25.2758 4.13014 22.0713C3.18754 18.8669 3.38253 15.4351 4.68205 12.358C5.98157 9.281 8.30558 6.74829 11.2598 5.1896C14.214 3.63091 17.6165 3.14223 20.8899 3.80646C24.1634 4.4707 27.1063 6.24695 29.2193 8.83385C31.3323 11.4208 32.4853 14.659 32.4827 17.9992C32.4874 19.9302 32.1026 21.8424 31.3514 23.6213C30.6001 25.4001 29.4977 27.0092 28.1103 28.3523Z" fill="#4A4A4A"/>
</svg>
